<svg xmlns="http://www.w3.org/2000/svg" xmlns:xlink="http://www.w3.org/1999/xlink" width="720" zoomAndPan="magnify" viewBox="0 0 540 76.499998" height="102" preserveAspectRatio="xMidYMid meet" version="1.0"><defs><g/><clipPath id="04fd48b25e"><path d="M 1.753906 11 L 23 11 L 23 73 L 1.753906 73 Z M 1.753906 11 " clip-rule="nonzero"/></clipPath><clipPath id="806a2555df"><path d="M 517 11 L 538.246094 11 L 538.246094 73 L 517 73 Z M 517 11 " clip-rule="nonzero"/></clipPath></defs><g clip-path="url(#04fd48b25e)"><g fill="#fffcf8" fill-opacity="1"><g transform="translate(1.89321, 59.144327)"><g><path d="M 20.40625 13.078125 L 18.578125 13.078125 L 0 -47.734375 L 1.828125 -47.734375 Z M 20.40625 13.078125 "/></g></g></g></g><g fill="#fffcf8" fill-opacity="1"><g transform="translate(22.285201, 59.144327)"><g/></g></g><g fill="#fffcf8" fill-opacity="1"><g transform="translate(39.605338, 59.144327)"><g><path d="M 17.984375 0 L 12.75 0 L 12.75 -40.875 L 0.984375 -40.875 L 0.984375 -45.765625 L 29.75 -45.765625 L 29.75 -40.875 L 17.984375 -40.875 Z M 17.984375 0 "/></g></g></g><g fill="#fffcf8" fill-opacity="1"><g transform="translate(70.324054, 59.144327)"><g><path d="M 34.328125 -24.1875 L 34.328125 -45.765625 L 39.5625 -45.765625 L 39.5625 0 L 34.328125 0 L 34.328125 -22.890625 L 10.140625 -22.890625 L 10.140625 0 L 4.90625 0 L 4.90625 -45.765625 L 10.140625 -45.765625 L 10.140625 -24.1875 Z M 34.328125 -24.1875 "/></g></g></g><g fill="#fffcf8" fill-opacity="1"><g transform="translate(114.768136, 59.144327)"><g><path d="M 10.140625 -23.21875 L 10.140625 -4.90625 L 29.75 -4.90625 L 29.75 0 L 4.90625 0 L 4.90625 -45.765625 L 29.09375 -45.765625 L 29.09375 -40.875 L 10.140625 -40.875 L 10.140625 -24.515625 L 28.125 -24.515625 L 28.125 -23.21875 Z M 10.140625 -23.21875 "/></g></g></g><g fill="#fffcf8" fill-opacity="1"><g transform="translate(147.578338, 59.144327)"><g><path d="M 24.328125 -24.515625 C 27.066406 -23.734375 29.222656 -22.375 30.796875 -20.4375 C 32.367188 -18.5 33.15625 -16.085938 33.15625 -13.203125 C 33.15625 -10.722656 32.5 -8.476562 31.1875 -6.46875 C 29.882812 -4.46875 28.054688 -2.890625 25.703125 -1.734375 C 23.347656 -0.578125 20.664062 0 17.65625 0 L 4.90625 0 L 4.90625 -45.765625 L 17 -45.765625 C 19.875 -45.765625 22.390625 -45.253906 24.546875 -44.234375 C 26.710938 -43.210938 28.359375 -41.796875 29.484375 -39.984375 C 30.617188 -38.171875 31.1875 -36.132812 31.1875 -33.875 C 31.1875 -31.738281 30.585938 -29.84375 29.390625 -28.1875 C 28.191406 -26.53125 26.503906 -25.304688 24.328125 -24.515625 Z M 10.140625 -40.875 L 10.140625 -24.84375 L 17 -24.84375 C 19.75 -24.84375 21.894531 -25.5625 23.4375 -27 C 24.988281 -28.445312 25.765625 -30.390625 25.765625 -32.828125 C 25.765625 -35.304688 24.988281 -37.265625 23.4375 -38.703125 C 21.894531 -40.148438 19.75 -40.875 17 -40.875 Z M 17.65625 -4.90625 C 20.707031 -4.90625 23.144531 -5.765625 24.96875 -7.484375 C 26.800781 -9.203125 27.71875 -11.457031 27.71875 -14.25 C 27.71875 -17 26.800781 -19.234375 24.96875 -20.953125 C 23.144531 -22.679688 20.707031 -23.546875 17.65625 -23.546875 L 10.140625 -23.546875 L 10.140625 -4.90625 Z M 17.65625 -4.90625 "/></g></g></g><g fill="#fffcf8" fill-opacity="1"><g transform="translate(183.133603, 59.144327)"><g><path d="M 41.984375 0 L 36.359375 0 L 31.0625 -13.40625 L 11.578125 -13.40625 L 6.28125 0 L 0.78125 0 L 19.421875 -45.765625 L 23.34375 -45.765625 Z M 21.3125 -37.984375 L 12.09375 -14.71875 L 30.53125 -14.71875 Z M 21.3125 -37.984375 "/></g></g></g><g fill="#fffcf8" fill-opacity="1"><g transform="translate(225.878365, 59.144327)"><g><path d="M 10.140625 -23.21875 L 10.140625 -4.90625 L 29.75 -4.90625 L 29.75 0 L 4.90625 0 L 4.90625 -45.765625 L 29.09375 -45.765625 L 29.09375 -40.875 L 10.140625 -40.875 L 10.140625 -24.515625 L 28.125 -24.515625 L 28.125 -23.21875 Z M 10.140625 -23.21875 "/></g></g></g><g fill="#fffcf8" fill-opacity="1"><g transform="translate(258.688566, 59.144327)"><g><path d="M 31.78125 0 L 14.78125 -21.25 L 10.140625 -21.25 L 10.140625 0 L 4.90625 0 L 4.90625 -45.765625 L 18.3125 -45.765625 C 21.226562 -45.765625 23.804688 -45.195312 26.046875 -44.0625 C 28.296875 -42.9375 30.039062 -41.378906 31.28125 -39.390625 C 32.53125 -37.410156 33.15625 -35.175781 33.15625 -32.6875 C 33.15625 -29.59375 32.050781 -27.039062 29.84375 -25.03125 C 27.644531 -23.03125 24.691406 -21.8125 20.984375 -21.375 L 38.25 0 Z M 10.140625 -40.875 L 10.140625 -22.5625 L 18.3125 -22.5625 C 21.144531 -22.5625 23.421875 -23.378906 25.140625 -25.015625 C 26.859375 -26.648438 27.71875 -28.882812 27.71875 -31.71875 C 27.71875 -34.632812 26.878906 -36.890625 25.203125 -38.484375 C 23.523438 -40.078125 21.226562 -40.875 18.3125 -40.875 Z M 10.140625 -40.875 "/></g></g></g><g fill="#fffcf8" fill-opacity="1"><g transform="translate(296.596777, 59.144327)"><g><path d="M 24.328125 -24.515625 C 27.066406 -23.734375 29.222656 -22.375 30.796875 -20.4375 C 32.367188 -18.5 33.15625 -16.085938 33.15625 -13.203125 C 33.15625 -10.722656 32.5 -8.476562 31.1875 -6.46875 C 29.882812 -4.46875 28.054688 -2.890625 25.703125 -1.734375 C 23.347656 -0.578125 20.664062 0 17.65625 0 L 4.90625 0 L 4.90625 -45.765625 L 17 -45.765625 C 19.875 -45.765625 22.390625 -45.253906 24.546875 -44.234375 C 26.710938 -43.210938 28.359375 -41.796875 29.484375 -39.984375 C 30.617188 -38.171875 31.1875 -36.132812 31.1875 -33.875 C 31.1875 -31.738281 30.585938 -29.84375 29.390625 -28.1875 C 28.191406 -26.53125 26.503906 -25.304688 24.328125 -24.515625 Z M 10.140625 -40.875 L 10.140625 -24.84375 L 17 -24.84375 C 19.75 -24.84375 21.894531 -25.5625 23.4375 -27 C 24.988281 -28.445312 25.765625 -30.390625 25.765625 -32.828125 C 25.765625 -35.304688 24.988281 -37.265625 23.4375 -38.703125 C 21.894531 -40.148438 19.75 -40.875 17 -40.875 Z M 17.65625 -4.90625 C 20.707031 -4.90625 23.144531 -5.765625 24.96875 -7.484375 C 26.800781 -9.203125 27.71875 -11.457031 27.71875 -14.25 C 27.71875 -17 26.800781 -19.234375 24.96875 -20.953125 C 23.144531 -22.679688 20.707031 -23.546875 17.65625 -23.546875 L 10.140625 -23.546875 L 10.140625 -4.90625 Z M 17.65625 -4.90625 "/></g></g></g><g fill="#fffcf8" fill-opacity="1"><g transform="translate(332.152043, 59.144327)"><g><path d="M 40.875 -41.125 C 43.570312 -38.945312 45.679688 -36.265625 47.203125 -33.078125 C 48.734375 -29.898438 49.5 -26.503906 49.5 -22.890625 C 49.5 -18.617188 48.453125 -14.671875 46.359375 -11.046875 C 44.265625 -7.429688 41.410156 -4.578125 37.796875 -2.484375 C 34.179688 -0.390625 30.210938 0.65625 25.890625 0.65625 C 23.316406 0.65625 20.851562 0.273438 18.5 -0.484375 C 16.144531 -1.253906 13.988281 -2.359375 12.03125 -3.796875 L 8.625 0.65625 L 6.796875 0.65625 L 10.921875 -4.640625 C 8.210938 -6.816406 6.09375 -9.492188 4.5625 -12.671875 C 3.039062 -15.859375 2.28125 -19.265625 2.28125 -22.890625 C 2.28125 -27.160156 3.328125 -31.101562 5.421875 -34.71875 C 7.515625 -38.34375 10.367188 -41.195312 13.984375 -43.28125 C 17.609375 -45.375 21.578125 -46.421875 25.890625 -46.421875 C 28.460938 -46.421875 30.925781 -46.039062 33.28125 -45.28125 C 35.632812 -44.519531 37.789062 -43.421875 39.75 -41.984375 L 43.15625 -46.421875 L 44.984375 -46.421875 Z M 7.71875 -22.890625 C 7.71875 -20.054688 8.269531 -17.414062 9.375 -14.96875 C 10.488281 -12.53125 12.03125 -10.441406 14 -8.703125 L 36.625 -37.984375 C 33.4375 -40.335938 29.859375 -41.515625 25.890625 -41.515625 C 22.578125 -41.515625 19.535156 -40.6875 16.765625 -39.03125 C 14.003906 -37.375 11.804688 -35.128906 10.171875 -32.296875 C 8.535156 -29.460938 7.71875 -26.328125 7.71875 -22.890625 Z M 25.890625 -4.25 C 29.203125 -4.25 32.242188 -5.078125 35.015625 -6.734375 C 37.785156 -8.390625 39.988281 -10.632812 41.625 -13.46875 C 43.257812 -16.300781 44.078125 -19.441406 44.078125 -22.890625 C 44.078125 -25.722656 43.519531 -28.359375 42.40625 -30.796875 C 41.289062 -33.234375 39.753906 -35.328125 37.796875 -37.078125 L 15.171875 -7.78125 C 18.347656 -5.425781 21.921875 -4.25 25.890625 -4.25 Z M 25.890625 -4.25 "/></g></g></g><g fill="#fffcf8" fill-opacity="1"><g transform="translate(383.916327, 59.144327)"><g><path d="M 38.390625 -5.03125 L 38.390625 -45.765625 L 43.484375 -45.765625 L 43.484375 0 L 40.34375 0 L 10 -40.734375 L 10 0 L 4.90625 0 L 4.90625 -45.765625 L 8.046875 -45.765625 Z M 38.390625 -5.03125 "/></g></g></g><g fill="#fffcf8" fill-opacity="1"><g transform="translate(432.281968, 59.144327)"><g><path d="M 10.140625 -23.21875 L 10.140625 -4.90625 L 29.75 -4.90625 L 29.75 0 L 4.90625 0 L 4.90625 -45.765625 L 29.09375 -45.765625 L 29.09375 -40.875 L 10.140625 -40.875 L 10.140625 -24.515625 L 28.125 -24.515625 L 28.125 -23.21875 Z M 10.140625 -23.21875 "/></g></g></g><g fill="#fffcf8" fill-opacity="1"><g transform="translate(465.09217, 59.144327)"><g><path d="M 18.375 0.65625 C 15.238281 0.65625 12.46875 0.00390625 10.0625 -1.296875 C 7.664062 -2.609375 5.789062 -4.441406 4.4375 -6.796875 C 3.09375 -9.148438 2.375 -11.898438 2.28125 -15.046875 L 7.515625 -15.046875 C 7.691406 -11.773438 8.726562 -9.15625 10.625 -7.1875 C 12.519531 -5.226562 15.101562 -4.25 18.375 -4.25 C 21.164062 -4.25 23.390625 -4.9375 25.046875 -6.3125 C 26.703125 -7.6875 27.53125 -9.503906 27.53125 -11.765625 C 27.53125 -13.554688 27.0625 -15.03125 26.125 -16.1875 C 25.1875 -17.34375 24.019531 -18.242188 22.625 -18.890625 C 21.226562 -19.546875 19.351562 -20.242188 17 -20.984375 C 14.125 -21.992188 11.832031 -22.921875 10.125 -23.765625 C 8.425781 -24.617188 6.96875 -25.894531 5.75 -27.59375 C 4.53125 -29.289062 3.921875 -31.535156 3.921875 -34.328125 C 3.921875 -36.597656 4.53125 -38.644531 5.75 -40.46875 C 6.96875 -42.300781 8.632812 -43.75 10.75 -44.8125 C 12.863281 -45.882812 15.253906 -46.421875 17.921875 -46.421875 C 20.660156 -46.421875 23.128906 -45.800781 25.328125 -44.5625 C 27.535156 -43.320312 29.289062 -41.585938 30.59375 -39.359375 C 31.90625 -37.140625 32.628906 -34.59375 32.765625 -31.71875 L 27.53125 -31.71875 C 27.351562 -34.769531 26.367188 -37.164062 24.578125 -38.90625 C 22.796875 -40.644531 20.507812 -41.515625 17.71875 -41.515625 C 15.320312 -41.515625 13.328125 -40.894531 11.734375 -39.65625 C 10.140625 -38.414062 9.34375 -36.640625 9.34375 -34.328125 C 9.34375 -32.671875 9.789062 -31.296875 10.6875 -30.203125 C 11.582031 -29.117188 12.691406 -28.269531 14.015625 -27.65625 C 15.347656 -27.050781 17.191406 -26.332031 19.546875 -25.5 C 22.378906 -24.582031 24.703125 -23.664062 26.515625 -22.75 C 28.328125 -21.832031 29.851562 -20.492188 31.09375 -18.734375 C 32.332031 -16.972656 32.953125 -14.648438 32.953125 -11.765625 C 32.953125 -9.410156 32.320312 -7.285156 31.0625 -5.390625 C 29.800781 -3.492188 28.054688 -2.007812 25.828125 -0.9375 C 23.609375 0.125 21.125 0.65625 18.375 0.65625 Z M 18.375 0.65625 "/></g></g></g><g fill="#fffcf8" fill-opacity="1"><g transform="translate(500.320647, 59.144327)"><g/></g></g><g clip-path="url(#806a2555df)"><g fill="#fffcf8" fill-opacity="1"><g transform="translate(517.640784, 59.144327)"><g><path d="M 20.40625 13.078125 L 18.578125 13.078125 L 0 -47.734375 L 1.828125 -47.734375 Z M 20.40625 13.078125 "/></g></g></g></g></svg>