<svg xmlns="http://www.w3.org/2000/svg" xmlns:xlink="http://www.w3.org/1999/xlink" xmlns:lucid="lucid" width="2345.16" height="1655.21"><g transform="translate(1295.8249640026024 669.5685121943064)" lucid:page-tab-id="0_0"><path d="M-1500-1000h3000v2000h-3000z" fill="#fff"/><path d="M-770.57 376l17.17-.36 17.4-1.1 16.38-1.7 15.5-2.3 14.76-2.8 14.17-3.33 13.7-3.8 13.3-4.34 13.05-4.84 12.86-5.4 12.8-6.03 12.84-6.73 13-7.5 13.37-8.5 13.92-9.67 14.8-11.25 16.26-13.46 18.82-16.98 24.6-24.16 115.16-120.64 18.8-16.97 16.27-13.46 14.8-11.26 13.92-9.68 13.36-8.48 13.02-7.5 12.84-6.73 12.8-6.02 12.85-5.4 13.05-4.85 13.3-4.33 13.7-3.82 14.16-3.32 14.78-2.8 15.5-2.3 16.37-1.7 17.4-1.1 17.2-.36" stroke="#000" stroke-width="3" stroke-linejoin="round" fill="none"/><path d="M-770.5 377.47l-1.58.03v-2.95l1.52-.03zM-101.16 12.5h-1.54V9.53h1.54z" stroke="#000" stroke-width=".05"/><path d="M-773.82 15.9l7.06-.15 8.2-.52 7.88-.82 7.6-1.12 7.4-1.4 7.22-1.7 7.07-1.97 6.97-2.25 6.88-2.57L-700.7.5l6.84-3.2 6.86-3.6 6.93-4 7.03-4.47 7.18-5 7.38-5.6 7.65-6.33 8-7.2 8.47-8.3 9.1-9.7 9.93-11.52 11.2-14.16 13.3-18.34 17.7-26.73 87.5-142.4 13.3-18.32 11.2-14.16 9.94-11.53 9.1-9.7 8.47-8.28 8-7.2 7.65-6.35 7.38-5.6 7.18-5 7.03-4.45 6.94-4 6.86-3.6 6.84-3.2 6.85-2.9 6.87-2.55 6.96-2.26 7.07-1.98 7.22-1.7 7.4-1.4 7.6-1.12 7.88-.83 8.2-.5 7.07-.15" stroke="#000" stroke-width="3" stroke-linejoin="round" fill="none"/><path d="M-773.75 17.37l-1.58.03v-2.95l1.52-.03zM-301.13-385.4h-1.54v-2.96h1.54z" stroke="#000" stroke-width=".05"/><path d="M-961.08-38.07a6 6 0 0 1 6-6h172.75a6 6 0 0 1 6 6v108a6 6 0 0 1-6 6h-172.75a6 6 0 0 1-6-6z" stroke="#5e5e5e" stroke-width="2" fill="#ff80df"/><use xlink:href="#a" transform="matrix(1,0,0,1,-951.842572014759,-38.07195789285953) translate(37.863031298195665 47.844896697260246)"/><use xlink:href="#b" transform="matrix(1,0,0,1,-951.842572014759,-38.07195789285953) translate(20.723801107623945 99.10743431009877)"/><path d="M-300.13-450.17a6 6 0 0 1 6-6h172.75a6 6 0 0 1 6 6v126.57a6 6 0 0 1-6 6h-172.75a6 6 0 0 1-6-6z" stroke="#5e5e5e" stroke-width="2" fill="#ffd6f5"/><use xlink:href="#c" transform="matrix(1,0,0,1,-290.8939316639746,-449.2367791825764) translate(34.1640625 53.177083333333336)"/><use xlink:href="#d" transform="matrix(1,0,0,1,-290.8939316639746,-449.2367791825764) translate(50.368489583333336 91.89583333333334)"/><path d="M-773.82 15.9l4.15-.1 5.5-.34 5.37-.56 5.26-.78 5.17-.98 5.12-1.2 5.08-1.42 5.05-1.64 5.05-1.9 5.07-2.12 5.12-2.4 5.17-2.7 5.24-3.04 5.36-3.4 5.5-3.83 5.67-4.32 5.87-4.85 6.1-5.5 6.4-6.3 6.77-7.2 7.2-8.32 7.7-9.74 8.4-11.54 9.22-13.92 10.38-17.16 12.03-21.93 14.7-29.7 20.4-46.02 95.47-235.34 14.7-29.7 12.04-21.94 10.38-17.16 9.23-13.92 8.38-11.54 7.7-9.75 7.2-8.33 6.76-7.2 6.4-6.28 6.1-5.5 5.87-4.86 5.67-4.3 5.5-3.83 5.36-3.4 5.25-3.04 5.18-2.72 5.1-2.4 5.08-2.13 5.06-1.88 5.05-1.65 5.1-1.4 5.1-1.2 5.18-1 5.26-.78 5.37-.56 5.5-.35 4.17-.1" stroke="#000" stroke-width="3" stroke-linejoin="round" fill="none"/><path d="M-773.75 17.37l-1.58.03v-2.95l1.52-.03zM-301.13-597.8h-1.54v-2.96h1.54z" stroke="#000" stroke-width=".05"/><path d="M-300.13-662.57a6 6 0 0 1 6-6h172.75a6 6 0 0 1 6 6V-536a6 6 0 0 1-6 6h-172.75a6 6 0 0 1-6-6z" stroke="#5e5e5e" stroke-width="2" fill="#ffd6f5"/><use xlink:href="#c" transform="matrix(1,0,0,1,-290.8939316639746,-661.640308964031) translate(34.1640625 53.177083333333336)"/><use xlink:href="#e" transform="matrix(1,0,0,1,-290.8939316639746,-661.640308964031) translate(37.764322916666664 91.89583333333334)"/><path d="M-773.82 15.92l671.16-4.9" stroke="#000" stroke-width="3" stroke-linejoin="round" fill="none"/><path d="M-773.77 17.4h-1.56v-2.95h1.54zM-101.16 12.5h-1.53V9.55h1.54z" stroke="#000" stroke-width=".05"/><path d="M-804.33 434.47c0 8.84-35.82 16-80 16s-80-7.16-80-16v-128c0-8.83 35.82-16 80-16s80 7.17 80 16z" stroke="#5e5e5e" stroke-width="2" fill="#6db1ff"/><path d="M-804.33 306.47c0 8.84-35.82 16-80 16s-80-7.16-80-16" stroke="#5e5e5e" stroke-width="2" fill="none"/><use xlink:href="#f" transform="matrix(1,0,0,1,-952.3283625142727,334.47288322615896) translate(29.923828125 68)"/><path d="M-773.08 440.03c0 8.84-35.82 16-80 16s-80-7.16-80-16v-128c0-8.84 35.82-16 80-16s80 7.16 80 16z" stroke="#5e5e5e" stroke-width="2" fill="#6db1ff"/><path d="M-773.08 312.03c0 8.84-35.82 16-80 16s-80-7.16-80-16" stroke="#5e5e5e" stroke-width="2" fill="none"/><use xlink:href="#f" transform="matrix(1,0,0,1,-921.0799039886329,340.0283417856473) translate(29.923828125 68)"/><path d="M-773.82 15.96l10.23.2 11.25.72 10.82 1.14 10.48 1.54 10.2 1.95 9.94 2.34 9.76 2.73 9.63 3.13 9.52 3.54 9.48 4 9.48 4.45 9.52 4.97 9.62 5.55 9.76 6.2 9.97 6.93 10.24 7.78 10.6 8.8 11.1 9.97 11.68 11.46 12.5 13.33 13.6 15.75 15.15 19.15 17.6 24.25 22.07 33.33 36.64 60.93 86.07 147.67 22.1 33.33 17.58 24.25 15.16 19.15 13.6 15.76 12.5 13.33 11.7 11.45 11.07 9.98 10.62 8.8 10.24 7.77 9.97 6.93 9.76 6.2 9.6 5.55 9.53 4.98 9.48 4.46 9.5 4 9.53 3.53 9.62 3.13 9.77 2.73 9.95 2.34 10.2 1.95 10.47 1.53 10.82 1.14 11.24.7 10.24.22" stroke="#3a414a" stroke-width="3" stroke-linejoin="round" fill="none"/><path d="M-773.75 14.48l-.06 2.95-1.53-.03v-2.95zM-101.16 609.54v2.96h-1.54v-2.96z" stroke="#3a414a" stroke-width=".05" fill="#3a414a"/><path d="M-964.33-532.7a6 6 0 0 1 6-6h172.75a6 6 0 0 1 6 6v108a6 6 0 0 1-6 6h-172.75a6 6 0 0 1-6-6z" stroke="#5e5e5e" stroke-width="2" fill="#6db1ff"/><use xlink:href="#g" transform="matrix(1,0,0,1,-955.0907582072388,-532.7053117584334) translate(12.618243204649868 46.591712380251735)"/><use xlink:href="#h" transform="matrix(1,0,0,1,-955.0907582072388,-532.7053117584334) translate(53.00637267557557 85.68615957906184)"/><path d="M-773.82 15.96l7.88.16 9.08.57 8.82.92 8.6 1.27 8.42 1.6 8.3 1.94 8.2 2.3 8.1 2.63 8.1 3 8.1 3.4 8.12 3.84 8.2 4.3 8.3 4.8 8.46 5.36 8.65 6.02 8.9 6.75 9.2 7.62 9.6 8.63 10.03 9.84 10.6 11.3 11.34 13.15 12.25 15.47 13.44 18.53 15.1 22.78 17.6 29.1 21.94 40.03 33.3 67.5L-368 537.84l21.94 40.02 17.6 29.12 15.1 22.77 13.45 18.53 12.24 15.47 11.33 13.13 10.6 11.32 10.05 9.84 9.58 8.63 9.2 7.62 8.9 6.74 8.65 6.02 8.46 5.37 8.3 4.8 8.2 4.28 8.14 3.84 8.1 3.4 8.08 3 8.13 2.65 8.2 2.28 8.28 1.94 8.42 1.6 8.6 1.28 8.82.93 9.08.57 7.9.16" stroke="#3a414a" stroke-width="3" stroke-linejoin="round" fill="none"/><path d="M-773.75 14.48l-.06 2.95-1.53-.03v-2.95zM-101.16 761.72v2.95h-1.54v-2.95z" stroke="#3a414a" stroke-width=".05" fill="#3a414a"/><path d="M-777.07-478.74l25.97-.53 23.8-1.48 21.05-2.2 19.02-2.8 17.53-3.35 16.52-3.87 15.95-4.46 15.9-5.17 16.64-6.2 18.96-7.97 29.16-13.83 62.6-30.62 18.96-7.98 16.63-6.2 15.92-5.17 15.95-4.45 16.52-3.87 17.52-3.33 19.02-2.8 21.06-2.2 23.8-1.5 25.97-.53" stroke="#3a414a" stroke-width="3" stroke-linejoin="round" fill="none"/><path d="M-777-477.26l-1.58.03v-2.95l1.52-.03zM-301.13-597.8h-1.54v-2.96h1.54z" stroke="#3a414a" stroke-width=".05" fill="#3a414a"/><path d="M-777.07-478.68l33.75.7 29.4 1.82 25.32 2.65 22.57 3.32 20.84 3.97 20.1 4.7 20.6 5.76 24.1 7.85 105.2 38.05 20.6 5.76 20.08 4.72 20.84 3.97 22.57 3.32 25.33 2.65 29.38 1.83 33.77.7" stroke="#3a414a" stroke-width="3" stroke-linejoin="round" fill="none"/><path d="M-777-480.15l-.06 2.95-1.52-.03v-2.95zM-301.13-388.36v2.95h-1.54v-2.96z" stroke="#3a414a" stroke-width=".05" fill="#3a414a"/><path d="M-773.82 15.96l27.2.56 25.8 1.6 23.5 2.48 21.65 3.2 20.2 3.84 19.07 4.47 18.24 5.1 17.68 5.74 17.4 6.48 17.47 7.34 17.96 8.46 19.16 10.03 21.8 12.6 29.14 18.57 107.74 72.46 21.8 12.6 19.15 10.03 17.97 8.47 17.46 7.34 17.4 6.5 17.7 5.73 18.23 5.1 19.08 4.47 20.2 3.84 21.65 3.2 23.5 2.46 25.8 1.6 27.2.57" stroke="#3a414a" stroke-width="3" stroke-linejoin="round" fill="none"/><path d="M-773.75 14.48l-.06 2.95-1.53-.03v-2.95zM-101.16 249.33v2.95h-1.54v-2.95z" stroke="#3a414a" stroke-width=".05" fill="#3a414a"/><path d="M-100.16-52.27a6 6 0 0 1 6-6H78.6a6 6 0 0 1 6 6V74.3a6 6 0 0 1-6 6H-94.17a6 6 0 0 1-6-6z" stroke="#5e5e5e" stroke-width="2" fill="#ffd6f5"/><use xlink:href="#i" transform="matrix(1,0,0,1,-90.92365448241821,-51.341996614269526) translate(30.85677083333333 72.70833333333334)"/><use xlink:href="#j" transform="matrix(1,0,0,1,-90.92365448241821,-51.341996614269526) translate(83.734375 72.70833333333334)"/><path d="M-100.16 547.74a6 6 0 0 1 6-6H78.6a6 6 0 0 1 6 6V674.3a6 6 0 0 1-6 6H-94.17a6 6 0 0 1-6-6z" stroke="#5e5e5e" stroke-width="2" fill="#ffd6f5"/><use xlink:href="#k" transform="matrix(1,0,0,1,-90.92365448241821,548.6664836833893) translate(13.454427083333329 72.70833333333334)"/><use xlink:href="#l" transform="matrix(1,0,0,1,-90.92365448241821,548.6664836833893) translate(95.26432291666666 72.70833333333334)"/><path d="M-100.16 187.52a6 6 0 0 1 6-6H78.6a6 6 0 0 1 6 6V314.1a6 6 0 0 1-6 6H-94.17a6 6 0 0 1-6-6z" stroke="#5e5e5e" stroke-width="2" fill="#ffd6f5"/><use xlink:href="#m" transform="matrix(1,0,0,1,-90.92365448241821,188.4506353685124) translate(28.272135416666664 53.177083333333336)"/><use xlink:href="#n" transform="matrix(1,0,0,1,-90.92365448241821,188.4506353685124) translate(46.77473958333333 91.89583333333334)"/><path d="M-100.16 699.9a6 6 0 0 1 6-6H78.6a6 6 0 0 1 6 6v126.57a6 6 0 0 1-6 6H-94.17a6 6 0 0 1-6-6z" stroke="#5e5e5e" stroke-width="2" fill="#ffd6f5"/><use xlink:href="#o" transform="matrix(1,0,0,1,-90.92365448241821,700.8380022655796) translate(18.87109375 72.70833333333334)"/><use xlink:href="#l" transform="matrix(1,0,0,1,-90.92365448241821,700.8380022655796) translate(89.84765625 72.70833333333334)"/><path d="M540.75 187.52a6 6 0 0 1 6-6H719.5a6 6 0 0 1 6 6V314.1a6 6 0 0 1-6 6H546.75a6 6 0 0 1-6-6z" stroke="#5e5e5e" stroke-width="2" fill="#9391ff"/><use xlink:href="#p" transform="matrix(1,0,0,1,549.9841471788709,188.4506353685124) translate(34.35286458333333 53.177083333333336)"/><use xlink:href="#q" transform="matrix(1,0,0,1,549.9841471788709,188.4506353685124) translate(43.14192708333333 91.89583333333334)"/><path d="M540.75 402.33a6 6 0 0 1 6-6H719.5a6 6 0 0 1 6 6V528.9a6 6 0 0 1-6 6H546.75a6 6 0 0 1-6-6z" stroke="#5e5e5e" stroke-width="2" fill="#9391ff"/><use xlink:href="#r" transform="matrix(1,0,0,1,549.9841471788709,403.2634455979373) translate(34.00130208333333 53.177083333333336)"/><use xlink:href="#s" transform="matrix(1,0,0,1,549.9841471788709,403.2634455979373) translate(48.28515625 91.89583333333334)"/><path d="M538.24 465.6l-12.77-.28-13.2-.82-12.3-1.3-11.55-1.7-10.95-2.1-10.45-2.44-10.06-2.8-9.76-3.18-9.55-3.55-9.4-3.96-9.4-4.42-9.48-4.95-9.7-5.6-10.08-6.4-10.8-7.5-12-9.13-14.42-11.96-22.25-20.13-57.17-53.4-14.43-11.95-12-9.12-10.78-7.5-10.1-6.4-9.7-5.6-9.46-4.96-9.4-4.42-9.42-3.96-9.54-3.55-9.76-3.16-10.06-2.8-10.45-2.46-10.96-2.1-11.55-1.7-12.3-1.3-13.18-.8-12.78-.28" stroke="#3a414a" stroke-width="3" stroke-linejoin="round" fill="none"/><path d="M539.75 464.14v2.95l-1.58-.04.06-2.95zM87.13 246.4v2.95H85.6v-2.95z" stroke="#3a414a" stroke-width=".05" fill="#3a414a"/><path d="M538.24 250.8H87.1" stroke="#3a414a" stroke-width="3" stroke-linejoin="round" fill="none"/><path d="M539.75 252.28h-1.55v-2.95h1.55zM87.13 252.28H85.6v-2.95h1.53z" stroke="#3a414a" stroke-width=".05" fill="#3a414a"/><path d="M87.1 11.04l11.5.24 12.1.76 11.37 1.2 10.74 1.58 10.23 1.94 9.8 2.3 9.44 2.64 9.18 2.98 9 3.34 8.86 3.73 8.84 4.16 8.86 4.64 9 5.2 9.25 5.88 9.7 6.74 10.38 7.9 11.55 9.56 13.76 12.4 19.87 19.55 64.2 65.82 13.75 12.4 11.55 9.57 10.4 7.9 9.68 6.73 9.26 5.88 9 5.2 8.86 4.63 8.83 4.16 8.87 3.73 9 3.33 9.17 3 9.45 2.63 9.8 2.3 10.2 1.94 10.74 1.58 11.37 1.2 12.1.75 11.52.24" stroke="#3a414a" stroke-width="3" stroke-linejoin="round" fill="none"/><path d="M87.17 9.57l-.06 2.95-1.5-.03V9.53zM539.75 249.33v2.95h-1.54v-2.95z" stroke="#3a414a" stroke-width=".05" fill="#3a414a"/><path d="M87.1 11.04l5.48.12 6.73.42 6.53.7 6.33.92 6.2 1.18 6.06 1.42 5.97 1.67 5.9 1.92 5.88 2.18 5.86 2.46 5.87 2.77 5.92 3.1 5.98 3.45 6.08 3.86 6.2 4.33 6.4 4.85 6.6 5.46 6.88 6.2 7.22 7.08 7.66 8.16 8.22 9.53 8.96 11.34 10 13.78 11.54 17.4 14.23 23.56 21 38.43 72.75 140.45 14.22 23.56 11.55 17.4 10 13.8 8.96 11.3 8.22 9.55 7.66 8.16 7.22 7.1 6.88 6.18 6.6 5.47 6.4 4.85 6.2 4.32 6.08 3.86 5.98 3.45 5.9 3.1 5.88 2.76 5.86 2.45 5.87 2.2 5.92 1.9 5.97 1.68 6.07 1.42 6.17 1.18 6.34.93 6.52.7 6.74.4 5.5.13" stroke="#3a414a" stroke-width="3" stroke-linejoin="round" fill="none"/><path d="M87.17 9.57l-.06 2.95-1.5-.03V9.53zM539.75 464.14v2.95h-1.54v-2.96z" stroke="#3a414a" stroke-width=".05" fill="#3a414a"/><path d="M539.63-27.3a6 6 0 0 1 6-6h172.75a6 6 0 0 1 6 6V99.28a6 6 0 0 1-6 6H545.63a6 6 0 0 1-6-6z" stroke="#5e5e5e" stroke-width="2" fill="#9391ff"/><use xlink:href="#t" transform="matrix(1,0,0,1,548.8621942801374,-26.362174860912653) translate(39.25520833333333 33.645833333333336)"/><use xlink:href="#u" transform="matrix(1,0,0,1,548.8621942801374,-26.362174860912653) translate(17.4453125 72.36458333333334)"/><use xlink:href="#v" transform="matrix(1,0,0,1,548.8621942801374,-26.362174860912653) translate(102.49739583333333 72.36458333333334)"/><use xlink:href="#w" transform="matrix(1,0,0,1,548.8621942801374,-26.362174860912653) translate(39.43750000000001 111.08333333333334)"/><path d="M87.1 11.04l94.1 1.8 65.57 4.08 196.25 17.26 94.1 1.78" stroke="#3a414a" stroke-width="3" stroke-linejoin="round" fill="none"/><path d="M87.16 9.57l-.05 2.95-1.5-.03V9.53zM538.63 34.52v2.95h-1.54v-2.95z" stroke="#3a414a" stroke-width=".05" fill="#3a414a"/><path d="M540.75-215.36a6 6 0 0 1 6-6H719.5a6 6 0 0 1 6 6v108a6 6 0 0 1-6 6H546.75a6 6 0 0 1-6-6z" stroke="#5e5e5e" stroke-width="2" fill="#9391ff"/><use xlink:href="#x" transform="matrix(1,0,0,1,549.9841471788709,-215.35682877343322) translate(42.89453125 62.958333333333336)"/><path d="M537.12 36.02l-12.9.27-13.28.82-12.37 1.3-11.63 1.72-11 2.1-10.52 2.46-10.1 2.82-9.8 3.18-9.6 3.57-9.46 3.98-9.43 4.44-9.53 4.97-9.75 5.63-10.18 6.47-10.92 7.6-12.22 9.28-14.92 12.37-25.5 23.13-49.3 45.62-14.9 12.37-12.24 9.3-10.9 7.6-10.2 6.45-9.75 5.63-9.5 4.98-9.45 4.45-9.46 3.98-9.6 3.56-9.8 3.18-10.1 2.82-10.5 2.46-11.02 2.1-11.63 1.72-12.38 1.3-13.3.83-12.88.27" stroke="#3a414a" stroke-width="3" stroke-linejoin="round" fill="none"/><path d="M538.63 37.47l-1.52.03-.05-2.95 1.58-.03zM87.13 252.28H85.6v-2.95h1.53z" stroke="#3a414a" stroke-width=".05" fill="#3a414a"/><path d="M538.24-161.33l-6.2.13-7.37.47-7.1.74-6.9 1.03-6.7 1.28-6.57 1.55-6.45 1.8-6.35 2.06-6.3 2.36-6.27 2.63-6.27 2.95-6.3 3.3-6.37 3.67-6.47 4.1-6.6 4.6-6.78 5.14-7.03 5.8-7.32 6.62-7.73 7.56-8.23 8.78-8.92 10.35-9.9 12.5-11.32 15.6-13.84 20.88-20.06 33.3-72.53 127.04-13.84 20.87-11.33 15.62-9.88 12.48-8.92 10.35-8.24 8.77-7.72 7.57-7.33 6.6-7 5.82-6.8 5.14-6.6 4.6-6.46 4.1-6.36 3.67-6.3 3.3-6.27 2.95-6.26 2.64-6.3 2.33-6.36 2.07-6.44 1.8-6.56 1.54-6.7 1.28-6.9 1-7.12.76-7.37.46-6.2.13" stroke="#3a414a" stroke-width="3" stroke-linejoin="round" fill="none"/><path d="M539.75-159.88l-1.52.03-.06-2.95 1.58-.03zM87.13 252.28H85.6v-2.95h1.53z" stroke="#3a414a" stroke-width=".05" fill="#3a414a"/><path d="M-770.57 376l3-.07 4.42-.27 4.33-.46 4.28-.63 4.23-.8 4.2-1 4.18-1.16 4.2-1.36 4.2-1.56 4.25-1.8 4.3-2 4.37-2.3 4.46-2.57 4.56-2.9 4.7-3.27 4.87-3.7 5.04-4.17 5.27-4.75 5.55-5.4 5.84-6.25 6.2-7.2 6.67-8.42 7.2-9.92 7.86-11.83 8.7-14.37 9.76-17.8 11.23-22.7 13.42-30.24 17.17-43.55 27-78.22 83.95-259.65 17.17-43.54 13.4-30.25 11.26-22.7 9.77-17.8 8.7-14.37 7.85-11.85 7.2-9.9 6.66-8.43 6.2-7.2 5.86-6.24 5.54-5.43 5.27-4.75 5.05-4.18 4.86-3.7 4.7-3.26 4.57-2.9 4.46-2.58 4.36-2.28 4.3-2.03 4.25-1.78 4.22-1.57 4.2-1.36 4.18-1.17 4.2-1 4.23-.8 4.27-.63 4.34-.45 4.4-.3 3.03-.05" stroke="#3a414a" stroke-width="3" stroke-linejoin="round" fill="none"/><path d="M-770.5 377.47l-1.58.03v-2.95l1.5-.03zM-301.13-385.4h-1.54v-2.96h1.54z" stroke="#3a414a" stroke-width=".05" fill="#3a414a"/><path d="M-770.57 376l2.04-.05 3.48-.2 3.43-.38 3.4-.5 3.4-.65 3.38-.8 3.4-.94 3.4-1.1 3.43-1.28 3.47-1.47 3.55-1.67 3.6-1.9 3.72-2.13 3.8-2.42 3.95-2.73 4.08-3.1 4.27-3.54 4.47-4.03 4.72-4.62 5-5.33 5.32-6.17 5.7-7.22 6.2-8.5 6.73-10.18 7.42-12.28 8.28-15.1 9.38-18.92 10.83-24.4 12.9-32.64 16.1-46.44 22.43-74.87 119.76-459 16.1-46.43 12.88-32.64 10.83-24.4 9.38-18.92 8.3-15.1 7.4-12.28 6.76-10.16 6.18-8.52 5.7-7.22 5.34-6.17 5-5.34 4.7-4.62 4.48-4.03 4.26-3.52 4.1-3.1 3.94-2.75 3.8-2.42 3.72-2.13 3.6-1.9 3.56-1.66 3.48-1.46 3.44-1.27 3.4-1.1 3.4-.96 3.37-.78 3.4-.65 3.4-.5 3.44-.36 3.48-.2 2.05-.05" stroke="#3a414a" stroke-width="3" stroke-linejoin="round" fill="none"/><path d="M-770.5 377.47l-1.58.03v-2.95l1.5-.03zM-301.13-597.8h-1.54v-2.96h1.54z" stroke="#3a414a" stroke-width=".05" fill="#3a414a"/><path d="M-123.82 406.87l6.32-.13 7.72-.5 7.53-.8 7.26-1.1 6.95-1.33 6.58-1.56 6.18-1.75 5.8-1.92 5.38-2.03 5-2.14 4.63-2.2 4.3-2.3 3.96-2.32 3.66-2.37 3.38-2.38 3.12-2.42 2.88-2.44 2.67-2.45 2.46-2.46 2.28-2.5 2.1-2.5 1.96-2.52 1.8-2.55 1.64-2.57 1.53-2.6 1.4-2.65 1.26-2.68 1.15-2.73 1.04-2.78.93-2.85.8-2.9.72-3 .58-3.1.47-3.18.34-3.3.2-3.43.04-1.8" stroke="#3a414a" stroke-width="3" stroke-linejoin="round" fill="none"/><path d="M-123.75 408.35l-1.57.03v-2.95l1.5-.03zM-6.34 322.65l-2.95-.05.04-1.5h2.95z" stroke="#3a414a" stroke-width=".05" fill="#3a414a"/><path d="M-313.58 406.94l-10.18.2-13 .84-14.67 1.55-16.77 2.48-19.56 3.76-23.42 5.5-29.24 8.2-39.68 12.95-74.9 28.2-125.78 48.85-28.07 9.17-18.94 5.32-14.17 3.34-11.2 2.14-9.2 1.37-7.7.8-6.6.42-5.73.12-5.04-.1-4.5-.28-4.04-.43-3.66-.54-3.34-.64-3.07-.72-2.84-.8-2.63-.85-2.47-.93-2.3-.97-2.2-1.03-2.07-1.08-1.97-1.15-1.88-1.2-1.8-1.24-1.73-1.3-1.66-1.38-1.62-1.45-1.56-1.52-1.5-1.6-1.48-1.72-1.43-1.8-1.38-1.92-1.37-2.04-1.33-2.2-1.3-2.37-1.27-2.56-1.23-2.78-1.2-3.02-1.15-3.32-1.1-3.67-1.05-4.07-.97-4.55-.87-5.14-.73-5.85-.56-6.7-.33-7.82-.03-2.9" stroke="#3a414a" stroke-width="3" stroke-linejoin="round" fill="none"/><path d="M-312.07 408.38l-1.5.03-.08-2.94 1.58-.03zM-853.1 457.03h1.5v1.52l-2.94.03v-1.6z" stroke="#3a414a" stroke-width=".05" fill="#3a414a"/><path d="M-102.67 915.33l-6.32-.13-7.6-.48-7.44-.78-7.3-1.08-7.17-1.37-7.12-1.67-7.05-1.97-7.03-2.3-7.03-2.6-7.06-2.97-7.1-3.36-7.22-3.77-7.32-4.24-7.5-4.75-7.66-5.34-7.9-6-8.2-6.8-8.55-7.68-8.95-8.77-9.44-10.08-10.04-11.64-10.77-13.6-11.7-16.1-12.83-19.37-14.4-23.8-16.58-30.22-20-40.4-26.63-60.1-149.93-376.78-20-40.4-16.58-30.2-14.4-23.82-12.85-19.37-11.7-16.1-10.76-13.6-10.05-11.63L-632.3 82l-8.94-8.77-8.54-7.7-8.2-6.77-7.9-6-7.68-5.35-7.5-4.74-7.32-4.23-7.2-3.77-7.12-3.36-7.06-2.96-7.03-2.62-7.02-2.28-7.05-1.97-7.1-1.67-7.2-1.37-7.28-1.08-7.44-.78-7.6-.48-6.33-.14" stroke="#3a414a" stroke-width="3" stroke-linejoin="round" fill="none"/><path d="M-101.16 913.9v2.94l-1.58-.03.06-2.94zM-773.8 14.45v2.95h-1.53v-2.95z" stroke="#3a414a" stroke-width=".05" fill="#3a414a"/><path d="M538.24-161.33l-16.33.34-16.15 1.02-14.82 1.56-13.73 2.02-12.86 2.45-12.17 2.86-11.66 3.26-11.27 3.66-11.06 4.12-11 4.63-11.17 5.25-11.6 6.07-12.5 7.2-14.34 9.13-19.5 13.6-70.28 51.6-14.36 9.12-12.5 7.22-11.58 6.06-11.16 5.26-11 4.62-11.07 4.1-11.28 3.68L173.17.75 161 3.6l-12.86 2.45-13.73 2.03-14.8 1.55-16.17 1L87.1 11" stroke="#3a414a" stroke-width="3" stroke-linejoin="round" fill="none"/><path d="M539.75-159.88l-1.52.03-.06-2.95 1.58-.03zM87.13 12.5H85.6V9.53h1.53z" stroke="#3a414a" stroke-width=".05" fill="#3a414a"/><path d="M-100.16 852.08a6 6 0 0 1 6-6H78.6a6 6 0 0 1 6 6v126.56a6 6 0 0 1-6 6H-94.17a6 6 0 0 1-6-6z" stroke="#5e5e5e" stroke-width="2" fill="#ffd6f5"/><use xlink:href="#y" transform="matrix(1,0,0,1,-90.92365448241821,853.0095208477699) translate(28.858072916666664 53.177083333333336)"/><use xlink:href="#z" transform="matrix(1,0,0,1,-90.92365448241821,853.0095208477699) translate(67.67317708333334 53.177083333333336)"/><use xlink:href="#A" transform="matrix(1,0,0,1,-90.92365448241821,853.0095208477699) translate(36.9375 91.89583333333334)"/><path d="M-311.07 352.9a6 6 0 0 1 6-6h172.75a6 6 0 0 1 6 6v108a6 6 0 0 1-6 6h-172.75a6 6 0 0 1-6-6z" stroke="#5e5e5e" stroke-width="2" fill="#00c2a8"/><use xlink:href="#B" transform="matrix(1,0,0,1,-301.8341930960101,352.9048937089103) translate(49.828125 46.083333333333336)"/><use xlink:href="#C" transform="matrix(1,0,0,1,-301.8341930960101,352.9048937089103) translate(32.666666666666664 78.34895833333334)"/><path d="M539.63-412.7a6 6 0 0 1 6-6h172.75a6 6 0 0 1 6 6v108a6 6 0 0 1-6 6H545.63a6 6 0 0 1-6-6z" stroke="#5e5e5e" stroke-width="2" fill="#9391ff"/><use xlink:href="#D" transform="matrix(1,0,0,1,548.8621942801371,-412.70531175843337) translate(26.09114583333333 42.708333333333336)"/><use xlink:href="#E" transform="matrix(1,0,0,1,548.8621942801371,-412.70531175843337) translate(82.015625 42.708333333333336)"/><use xlink:href="#F" transform="matrix(1,0,0,1,548.8621942801371,-412.70531175843337) translate(19.782552083333343 81.42708333333334)"/><path d="M537.12-358.67l-7 .14-8.13.5-7.8.83-7.54 1.1-7.3 1.4-7.1 1.67-6.96 1.94-6.85 2.24-6.76 2.5-6.72 2.84-6.7 3.15-6.73 3.52-6.8 3.92-6.87 4.37-7.04 4.9-7.23 5.48-7.5 6.22-7.87 7.1-8.35 8.17-9 9.6-9.94 11.54-11.37 14.37-13.95 19.25-20.87 31.58-66.15 104.63-13.95 19.24-11.38 14.37-9.93 11.53-9 9.6-8.36 8.18-7.86 7.1-7.5 6.2-7.25 5.5-7.03 4.9-6.9 4.36-6.77 3.92-6.73 3.5-6.7 3.17-6.72 2.82-6.76 2.52-6.84 2.22-6.96 1.94-7.1 1.66-7.3 1.4-7.53 1.1-7.8.82-8.13.52-7 .14" stroke="#3a414a" stroke-width="3" stroke-linejoin="round" fill="none"/><path d="M538.63-357.23l-1.52.03-.05-2.95 1.58-.03zM87.13 12.5H85.6V9.53h1.53z" stroke="#3a414a" stroke-width=".05" fill="#3a414a"/><path d="M539.63 617.15a6 6 0 0 1 6-6h172.75a6 6 0 0 1 6 6V743.7a6 6 0 0 1-6 6H545.63a6 6 0 0 1-6-6z" stroke="#5e5e5e" stroke-width="2" fill="#9391ff"/><use xlink:href="#G" transform="matrix(1,0,0,1,548.8621942801371,618.0762558273622) translate(18.48046875 72.70833333333334)"/><path d="M538.5 831.96a6 6 0 0 1 6-6h172.75a6 6 0 0 1 6 6v126.56a6 6 0 0 1-6 6H544.5a6 6 0 0 1-6-6z" stroke="#5e5e5e" stroke-width="2" fill="#9391ff"/><use xlink:href="#H" transform="matrix(1,0,0,1,547.7402413814036,832.8890660567866) translate(4.255208333333329 72.70833333333334)"/><use xlink:href="#I" transform="matrix(1,0,0,1,547.7402413814036,832.8890660567866) translate(89.29427083333333 72.70833333333334)"/><path d="M-1294.83-38.07a6 6 0 0 1 6-6h172.76a6 6 0 0 1 6 6v108a6 6 0 0 1-6 6h-172.76a6 6 0 0 1-6-6z" stroke="#5e5e5e" stroke-width="2" fill="#ff80df"/><use xlink:href="#J" transform="matrix(1,0,0,1,-1285.5873596955685,-38.07195789285953) translate(17.455245440622946 47.844896697260246)"/><use xlink:href="#K" transform="matrix(1,0,0,1,-1285.5873596955685,-38.07195789285953) translate(37.863031298195665 99.10743431009877)"/><path d="M-1107.57 15.93h144" stroke="#3a414a" stroke-width="3" stroke-linejoin="round" fill="none"/><path d="M-1107.53 17.4h-1.54v-2.95h1.54zM-962.08 17.4h-1.54v-2.95h1.54z" stroke="#3a414a" stroke-width=".05" fill="#3a414a"/><path d="M-1294.83 218.9a6 6 0 0 1 6-6h172.76a6 6 0 0 1 6 6v108a6 6 0 0 1-6 6h-172.76a6 6 0 0 1-6-6z" stroke="#5e5e5e" stroke-width="2" fill="#ced4db"/><use xlink:href="#L" transform="matrix(1,0,0,1,-1285.5873596955685,218.90980783679402) translate(16.865664196891753 68.2501986245475)"/><path d="M-1202.45 210.4V78.44" stroke="#3a414a" stroke-width="3" stroke-linejoin="round" fill="none"/><path d="M-1200.97 211.9h-2.95v-1.53h2.95zM-1200.97 78.47h-2.95v-1.54h2.95z" stroke="#3a414a" stroke-width=".05" fill="#3a414a"/><path d="M87.1 250.84l5.84.12 7.07.44 6.83.72 6.62.98 6.46 1.23 6.33 1.48 6.2 1.75 6.15 2 6.1 2.25 6.06 2.56 6.07 2.86 6.12 3.2 6.18 3.56 6.27 3.98 6.4 4.46 6.6 5 6.8 5.64 7.1 6.4 7.48 7.32 7.94 8.46 8.56 9.93 9.4 11.9 10.64 14.64 12.58 19 16.5 27.36 89.95 162.47 12.6 19 10.62 14.64 9.4 11.9 8.57 9.92 7.95 8.46 7.47 7.32 7.1 6.4 6.8 5.64 6.6 5 6.4 4.45 6.28 4 6.17 3.55 6.1 3.2 6.08 2.86 6.07 2.55 6.1 2.27 6.13 2 6.2 1.72 6.33 1.5 6.46 1.22 6.63.98 6.8.7 7.07.46 5.86.12" stroke="#3a414a" stroke-width="3" stroke-linejoin="round" fill="none"/><path d="M87.17 249.36l-.06 2.95-1.5-.02v-2.95zM538.63 678.96v2.94h-1.54v-2.94z" stroke="#3a414a" stroke-width=".05" fill="#3a414a"/><path d="M-7.75 322.6l.15 7.47.53 8.5.86 8.1 1.13 7.77 1.43 7.5 1.7 7.28 2 7.1 2.27 7 2.58 6.94 2.9 6.9 3.3 6.97 3.67 7.05 4.18 7.22 4.75 7.5 5.48 7.87 6.43 8.46 7.76 9.35 9.78 10.85 13.64 13.9 87.55 82.52 11.16 12.37 9.04 10.93 7.68 10.1 6.67 9.6 4.83 7.55L219 648.52l26.62 37.7 25.85 33.52 24.18 28.8 22.23 24.32 20.32 20.44 18.54 17.15 16.96 14.42L389.25 837l14.33 10.26 13.25 8.66 12.32 7.34 11.5 6.2 10.8 5.27 10.17 4.43 9.63 3.73 9.15 3.1 8.73 2.56 8.36 2.08 8.04 1.64 7.77 1.25 7.54.9 7.32.56 7.14.23h.7" stroke="#3a414a" stroke-width="3" stroke-linejoin="round" fill="none"/><path d="M-6.28 322.6l-2.95.06-.03-1.57h2.95zM537.5 893.77v2.95h-1.54v-2.96z" stroke="#3a414a" stroke-width=".05" fill="#3a414a"/><path d="M725.76 898.5h135.32" stroke="#000" stroke-width="3" stroke-linejoin="round" fill="none"/><path d="M725.8 900h-1.54v-2.96h1.53zM862.58 900h-1.54v-2.96h1.54z" stroke="#000" stroke-width=".05"/><path d="M863.58 835.23a6 6 0 0 1 6-6h172.75a6 6 0 0 1 6 6V961.8a6 6 0 0 1-6 6H869.58a6 6 0 0 1-6-6z" stroke="#5e5e5e" stroke-width="2" fill="#dedeff"/><use xlink:href="#M" transform="matrix(1,0,0,1,872.8172754645336,836.1591639283222) translate(0.1536458333333286 53.177083333333336)"/><use xlink:href="#N" transform="matrix(1,0,0,1,872.8172754645336,836.1591639283222) translate(38.96875 53.177083333333336)"/><use xlink:href="#O" transform="matrix(1,0,0,1,872.8172754645336,836.1591639283222) translate(112.53645833333334 53.177083333333336)"/><use xlink:href="#P" transform="matrix(1,0,0,1,872.8172754645336,836.1591639283222) translate(57.295572916666664 91.89583333333334)"/><path d="M-112.87-599.26l7.52.16 8.12.5 7.38.78 6.73 1 6.2 1.17 5.72 1.35 5.32 1.48 4.97 1.62 4.66 1.73 4.4 1.85 4.16 1.96 3.95 2.06 3.77 2.18 3.6 2.3 3.48 2.4 3.34 2.53 3.22 2.68 3.12 2.8 3.03 2.98 2.95 3.14 2.88 3.34 2.82 3.55 2.75 3.78 2.7 4.07 2.65 4.37 2.6 4.74 2.55 5.14 2.5 5.62 2.45 6.2 2.38 6.84 2.3 7.65 2.22 8.63 2.08 9.83 1.92 11.34 1.67 13.3 1.33 15.94.8 19.65-.02 25.3-1.53 35.34-5.43 62.47L-6.02-110.9l-1.6 37.23-.15 12.93" stroke="#3a414a" stroke-width="3" stroke-linejoin="round" fill="none"/><path d="M-112.8-600.73l-.06 2.95-1.52-.03v-2.96zM-6.3-60.8v1.53h-2.96l.02-1.55z" stroke="#3a414a" stroke-width=".05" fill="#3a414a"/><path d="M-112.88-386.85l4.52.1 5.5.34 5.1.52 4.73.7 4.4.84 4.14.97 3.9 1.08 3.7 1.2 3.5 1.3 3.34 1.42 3.2 1.5 3.08 1.6 2.97 1.73 2.86 1.82 2.78 1.94 2.72 2.07 2.65 2.2 2.6 2.32 2.55 2.5 2.5 2.66 2.48 2.87 2.44 3.08 2.42 3.35 2.4 3.6 2.4 3.96 2.36 4.33 2.36 4.77 2.36 5.28 2.33 5.9 2.33 6.68 2.3 7.6 2.24 8.76 2.17 10.26 2.07 12.25 1.9 15.03 1.6 19.22 1.06 26.54-.13 46.3-2.68 107.5" stroke="#3a414a" stroke-width="3" stroke-linejoin="round" fill="none"/><path d="M-112.8-388.33l-.07 2.95-1.5-.03v-2.96zM-6.27-60.77l-.04 1.5h-2.96l.04-1.57z" stroke="#3a414a" stroke-width=".05" fill="#3a414a"/><path d="M-966.83 370.44l-5.9-.12-6.6-.4-5.96-.64-5.4-.8-4.93-.93-4.54-1.07-4.2-1.17-3.9-1.26-3.66-1.36-3.43-1.44-3.24-1.52-3.06-1.6-2.92-1.7-2.78-1.75-2.67-1.86-2.56-1.93-2.46-2.05-2.4-2.15-2.3-2.27-2.26-2.4-2.2-2.54-2.14-2.7-2.1-2.9-2.05-3.1-2.03-3.32-1.98-3.6-1.95-3.92-1.9-4.3-1.88-4.72-1.83-5.24-1.77-5.88-1.7-6.65-1.62-7.62-1.5-8.85-1.3-10.5-1.07-12.77-.66-16.08.02-21.5 1.42-32.32 19.2-238.5.18-17.95-.8-37.4-3.3-51.12-16.38-173.04-.44-20.1.3-14.63.7-11.5 1-9.4 1.15-7.9 1.3-6.8 1.4-5.96 1.46-5.26 1.53-4.7 1.58-4.28 1.63-3.88 1.68-3.57 1.72-3.3 1.77-3.06 1.82-2.85 1.86-2.68 1.92-2.53 1.98-2.4 2.04-2.26 2.12-2.16 2.2-2.06 2.28-1.98 2.4-1.9 2.5-1.8 2.63-1.76 2.77-1.7 2.95-1.6 3.14-1.57 3.36-1.5 3.6-1.42 3.9-1.36 4.24-1.27 4.64-1.2 5.1-1.07 5.65-.96 6.33-.8 7.14-.6 8.13-.33 3.02-.03" stroke="#3a414a" stroke-width="3" stroke-linejoin="round" fill="none"/><path d="M-965.33 369v2.95l-1.57-.03.06-2.95zM-965.33-477.23l-1.52.02-.03-2.96 1.55-.02z" stroke="#3a414a" stroke-width=".05" fill="#3a414a"/><path d="M-1093.16 772.38a6 6 0 0 1 6-6h172.75a6 6 0 0 1 6 6v109.9a6 6 0 0 1-6 6h-172.76a6 6 0 0 1-6-6z" stroke="#5e5e5e" stroke-width="2" fill="#c3f7c8"/><g><use xlink:href="#Q" transform="matrix(1,0,0,1,-1083.9227032931694,772.4784387525514) translate(34.84765625 29.270833333333336)"/><use xlink:href="#R" transform="matrix(1,0,0,1,-1083.9227032931694,772.4784387525514) translate(28.272135416666664 67.98958333333334)"/><use xlink:href="#S" transform="matrix(1,0,0,1,-1083.9227032931694,772.4784387525514) translate(42.458333333333336 106.70833333333334)"/></g><path d="M-711.1 855.04c-15.32 0-27.73-12.4-27.73-27.7 0-12.25 7.5-22.58 19.15-26.37-.67-36 45.52-42.92 64-29.07 9.23-20.78 55.42-13.85 55.42 6.93 27.7-6.93 55.42 20.8 36.95 55.43 18.46 27.7 0 62.35-36.96 48.5-9.24 18-46.2 18-55.43 0-18.46 13.85-55.4 6.92-55.4-27.72z" stroke="#5e5e5e" stroke-width="2" fill="#dedeff"/><g><use xlink:href="#T" transform="matrix(1,0,0,1,-729.5875503462402,764.9761721800718) translate(45.10896077980172 39.56750395779901)"/><use xlink:href="#U" transform="matrix(1,0,0,1,-729.5875503462402,764.9761721800718) translate(12.183803323483117 81.1024491020493)"/></g><path d="M-905.9 827.33h164.57" stroke="#3a414a" stroke-width="3" stroke-linejoin="round" fill="none"/><path d="M-905.87 828.8h-1.54v-2.94h1.53zM-739.83 827.32l.1 1.48h-1.64v-2.94h1.68z" stroke="#3a414a" stroke-width=".05" fill="#3a414a"/><path d="M-557.6 827.3l1.15-.02 2.44-.16 2.24-.23 2.1-.32 1.93-.37 1.83-.42 1.7-.48 1.64-.53 1.54-.57 1.48-.62 1.4-.66 1.36-.7 1.3-.77 1.27-.8 1.22-.85 1.2-.9 1.16-.97 1.14-1.03 1.12-1.1 1.1-1.18 1.1-1.26 1.07-1.36 1.08-1.47 1.06-1.6 1.05-1.73 1.04-1.9 1.04-2.1 1.04-2.34 1.02-2.6 1.02-2.92 1-3.33.98-3.8.95-4.46.87-5.25.8-6.33.64-7.8.42-9.95-.02-13.4-.86-19.87-3.53-40.2-12.33-122.34-1.3-30.06-.02-22.4.74-17.97 1.24-15 1.6-12.8 1.9-11.15 2.07-9.84 2.27-8.78 2.38-7.9 2.5-7.2.37-.98 2.47-6.12 2.7-6 3-5.94 3.26-5.86 3.57-5.8 3.9-5.8 4.23-5.75 4.62-5.75 5.04-5.77 5.5-5.8 6.04-5.82 6.62-5.88 7.28-5.94 8.03-6.02 8.9-6.1 9.88-6.2 11.04-6.27 12.4-6.4 13.94-6.44 15.8-6.53 18-6.55 20.54-6.53 23.6-6.43 27.17-6.18 31.27-5.76 35.75-5.04 40.12-3.96 42.92-2.43 33.8-.62" stroke="#3a414a" stroke-width="3" stroke-linejoin="round" fill="none"/><path d="M-557.55 828.77l-2.18.05.6-1.4.48-1.57 1.04-.03zM-101.16 252.28l-1.5.03-.07-2.94 1.57-.03z" stroke="#3a414a" stroke-width=".05" fill="#3a414a"/><defs><path d="M180 0v-1490h510c348 0 508 194 508 460 0 198-88 351-276 417L1256 0h-220L726-579c-117 2-238 0-356 1V0H180zm190-747h312c235 0 327-108 327-283 0-177-92-293-329-293H370v576" id="V"/><path d="M613 24c-304 0-509-231-509-576 0-350 205-580 509-580 305 0 511 230 511 580 0 345-206 576-511 576zm0-161c226 0 329-195 329-415 0-222-103-419-329-419-223 0-326 196-326 419 0 220 103 415 326 415" id="W"/><path d="M598-1118v154H368v674c0 100 37 144 132 144 23 0 62-6 92-12L629-6c-37 13-88 20-134 20-193 0-307-107-307-290v-688H20v-154h168v-266h180v266h230" id="X"/><g id="a"><use transform="matrix(0.020687061183550657,0,0,0.020687061183550657,0,0)" xlink:href="#V"/><use transform="matrix(0.020687061183550657,0,0,0.020687061183550657,26.644934804413246,0)" xlink:href="#W"/><use transform="matrix(0.020687061183550657,0,0,0.020687061183550657,52.048645937813454,0)" xlink:href="#W"/><use transform="matrix(0.020687061183550657,0,0,0.020687061183550657,77.45235707121365,0)" xlink:href="#X"/></g><path d="M180 0v-1490h901v168H370v510h643v168H370V0H180" id="Y"/><path d="M338-1490V0H158v-1490h180" id="Z"/><path d="M577 24c-279 0-473-224-473-580 0-354 195-576 474-576 218 0 287 134 324 193h14v-551h180V0H922v-173h-20C865-111 790 24 577 24zm27-161c203 0 314-172 314-421 0-247-108-413-314-413-212 0-317 181-317 413 0 235 108 421 317 421" id="aa"/><path d="M628 24c-324 0-524-230-524-574 0-343 198-582 503-582 237 0 487 146 487 559v75H286c9 234 145 362 343 362 132 0 231-58 273-172l174 48C1024-91 857 24 628 24zM287-650h624c-17-190-120-322-304-322-192 0-309 151-320 322" id="ab"/><path d="M158 0v-1118h174v172h12c41-113 157-188 290-188 26 0 70 2 91 3v181c-11-2-60-10-108-10-161 0-279 109-279 260V0H158" id="ac"/><g id="b"><use transform="matrix(0.020687061183550657,0,0,0.020687061183550657,0,0)" xlink:href="#Y"/><use transform="matrix(0.020687061183550657,0,0,0.020687061183550657,23.335005015045144,0)" xlink:href="#W"/><use transform="matrix(0.020687061183550657,0,0,0.020687061183550657,48.73871614844535,0)" xlink:href="#Z"/><use transform="matrix(0.020687061183550657,0,0,0.020687061183550657,58.99949849548647,0)" xlink:href="#aa"/><use transform="matrix(0.020687061183550657,0,0,0.020687061183550657,84.941073219659,0)" xlink:href="#ab"/><use transform="matrix(0.020687061183550657,0,0,0.020687061183550657,109.64142427281847,0)" xlink:href="#ac"/></g><path d="M180 0v-1490h510c348 0 508 209 508 474 0 266-160 477-507 477H370V0H180zm190-706h312c236 0 327-133 327-310 0-176-91-307-329-307H370v617" id="ad"/><path d="M537 14c-226 0-379-139-379-422v-710h180v695c0 172 97 275 253 275 160 0 281-109 281-300v-670h181V0H879v-209C806-46 684 14 537 14" id="ae"/><path d="M613 24c-304 0-509-231-509-576 0-350 205-580 509-580 216 0 392 114 453 309l-173 49c-33-115-133-197-280-197-223 0-326 196-326 419 0 220 103 415 326 415 150 0 252-85 285-206l172 49C1010-95 832 24 613 24" id="af"/><g id="c"><use transform="matrix(0.013020833333333334,0,0,0.013020833333333334,0,0)" xlink:href="#ad"/><use transform="matrix(0.013020833333333334,0,0,0.013020833333333334,17.03125,0)" xlink:href="#ac"/><use transform="matrix(0.013020833333333334,0,0,0.013020833333333334,26.627604166666668,0)" xlink:href="#W"/><use transform="matrix(0.013020833333333334,0,0,0.013020833333333334,42.6171875,0)" xlink:href="#aa"/><use transform="matrix(0.013020833333333334,0,0,0.013020833333333334,58.9453125,0)" xlink:href="#ae"/><use transform="matrix(0.013020833333333334,0,0,0.013020833333333334,74.71354166666667,0)" xlink:href="#af"/><use transform="matrix(0.013020833333333334,0,0,0.013020833333333334,89.94791666666667,0)" xlink:href="#X"/></g><path d="M783 20c-382 0-661-292-661-764 0-473 279-766 661-766 302 0 548 182 601 489h-190c-42-204-217-313-411-313-268 0-476 208-476 590 0 381 209 588 476 588 195 0 369-110 411-313h190c-52 303-296 489-601 489" id="ag"/><path d="M158 418v-1536h174v179h20c37-59 106-193 324-193 279 0 474 222 474 576 0 356-194 580-473 580-213 0-288-135-325-197h-14v591H158zm492-555c209 0 317-186 317-421 0-232-105-413-317-413-206 0-314 166-314 413 0 249 111 421 314 421" id="ah"/><path d="M140 405l46-156c120 36 205 19 263-150l32-93L54-1118h197c107 313 237 620 324 950 87-331 219-637 326-950h196L606 167c-68 178-176 259-334 259-64 0-113-12-132-21" id="ai"/><g id="d"><use transform="matrix(0.013020833333333334,0,0,0.013020833333333334,0,0)" xlink:href="#ag"/><use transform="matrix(0.013020833333333334,0,0,0.013020833333333334,19.479166666666668,0)" xlink:href="#W"/><use transform="matrix(0.013020833333333334,0,0,0.013020833333333334,35.46875,0)" xlink:href="#ah"/><use transform="matrix(0.013020833333333334,0,0,0.013020833333333334,51.276041666666664,0)" xlink:href="#ai"/></g><path d="M370-1490V0H180v-1490h190" id="aj"/><path d="M158 0v-1118h175l1 205c55-151 181-225 313-225 147 0 245 90 285 228 53-141 190-228 352-228 194 0 352 125 352 384V0h-181v-749c0-161-105-225-225-225-151 0-243 103-243 244V0H807v-767c0-124-93-207-219-207-131 0-250 92-250 270V0H158" id="ak"/><path d="M471 26C259 26 90-98 90-318c0-256 228-303 435-329 202-27 287-16 287-108 0-139-79-219-234-219-161 0-248 86-283 164l-173-57c86-203 278-265 451-265 150 0 419 46 419 395V0H815v-152h-12C765-73 660 26 471 26zm31-159c199 0 310-134 310-271v-155c-30 35-226 55-295 64-131 17-246 59-246 186 0 116 97 176 231 176" id="al"/><path d="M611 442c-248 0-391-105-460-228l146-94c47 65 117 165 314 165 178 0 307-82 307-266v-224h-17C863-141 792-18 576-18c-268 0-472-195-472-546 0-346 197-568 476-568 216 0 288 133 326 193h17v-179h175V29c0 289-215 413-487 413zm-5-620c203 0 314-146 314-390 0-237-108-403-314-403-213 0-319 180-319 403 0 230 109 390 319 390" id="am"/><path d="M538 24C308 24 148-78 108-271l171-41c32 123 123 178 257 178 156 0 256-77 256-169 0-77-54-128-164-154l-186-44c-203-48-300-148-300-305 0-192 176-326 414-326 230 0 351 112 402 269l-163 42c-31-80-94-158-238-158-133 0-233 69-233 162 0 83 57 129 188 160l169 40c203 48 298 149 298 302 0 196-179 339-441 339" id="an"/><g id="e"><use transform="matrix(0.013020833333333334,0,0,0.013020833333333334,0,0)" xlink:href="#aj"/><use transform="matrix(0.013020833333333334,0,0,0.013020833333333334,7.161458333333334,0)" xlink:href="#ak"/><use transform="matrix(0.013020833333333334,0,0,0.013020833333333334,30.520833333333336,0)" xlink:href="#al"/><use transform="matrix(0.013020833333333334,0,0,0.013020833333333334,45.49479166666667,0)" xlink:href="#am"/><use transform="matrix(0.013020833333333334,0,0,0.013020833333333334,61.84895833333335,0)" xlink:href="#ab"/><use transform="matrix(0.013020833333333334,0,0,0.013020833333333334,77.39583333333334,0)" xlink:href="#an"/></g><path d="M645 0H180v-1490h484c435 0 692 280 692 742 0 466-257 748-711 748zM370-168h263c363 0 539-218 539-580 0-358-176-574-521-574H370v1154" id="ao"/><path d="M180 0v-1490h528c311 0 458 177 458 395 0 191-114 278-244 313v14c139 9 302 137 302 371 0 225-148 397-499 397H180zm190-168h350c232 0 321-102 321-231 0-149-120-277-311-277H370v508zm0-668h328c160 0 286-101 286-255 0-129-87-231-280-231H370v486" id="ap"/><g id="f"><use transform="matrix(0.01953125,0,0,0.01953125,0,0)" xlink:href="#ao"/><use transform="matrix(0.01953125,0,0,0.01953125,28.8671875,0)" xlink:href="#ap"/><use transform="matrix(0.01953125,0,0,0.01953125,55.0390625,0)" xlink:href="#an"/></g><path d="M158 0v-1118h180V0H158zm91-1301c-68 0-125-53-125-119s57-119 125-119c69 0 126 53 126 119s-57 119-126 119" id="aq"/><g id="g"><use transform="matrix(0.013147177562150295,0,0,0.013147177562150295,0,0)" xlink:href="#ad"/><use transform="matrix(0.013147177562150295,0,0,0.013147177562150295,17.196508251292585,0)" xlink:href="#ac"/><use transform="matrix(0.013147177562150295,0,0,0.013147177562150295,26.885978114597354,0)" xlink:href="#W"/><use transform="matrix(0.013147177562150295,0,0,0.013147177562150295,43.030712160917915,0)" xlink:href="#ah"/><use transform="matrix(0.013147177562150295,0,0,0.013147177562150295,59.517272823854384,0)" xlink:href="#ac"/><use transform="matrix(0.013147177562150295,0,0,0.013147177562150295,70.07445640626108,0)" xlink:href="#aq"/><use transform="matrix(0.013147177562150295,0,0,0.013147177562150295,76.59545647708762,0)" xlink:href="#ab"/><use transform="matrix(0.013147177562150295,0,0,0.013147177562150295,92.29318648629507,0)" xlink:href="#X"/><use transform="matrix(0.013147177562150295,0,0,0.013147177562150295,101.23326722855727,0)" xlink:href="#al"/><use transform="matrix(0.013147177562150295,0,0,0.013147177562150295,116.35252142503013,0)" xlink:href="#ac"/><use transform="matrix(0.013147177562150295,0,0,0.013147177562150295,126.9097050074368,0)" xlink:href="#ai"/></g><path d="M180 0v-1490h270l367 940c28 72 75 218 110 339 35-117 81-264 110-339l362-940h271V0h-187c2-448-5-837 7-1287-157 497-311 829-483 1287H842C666-458 514-784 354-1284c12 438 5 843 7 1284H180" id="ar"/><path d="M657 26c-323 0-524-166-541-416h195c15 169 171 246 346 246 202 0 356-106 356-265 5-203-294-238-475-293-239-73-380-191-380-389 0-252 224-419 512-419 294 0 499 171 508 396H992c-17-145-151-228-328-228-193 0-321 102-321 242 0 156 175 211 284 241l149 41c160 44 422 134 422 412 0 244-197 432-541 432" id="as"/><g id="h"><use transform="matrix(0.013147177562150295,0,0,0.013147177562150295,0,0)" xlink:href="#ag"/><use transform="matrix(0.013147177562150295,0,0,0.013147177562150295,19.668177632976843,0)" xlink:href="#ar"/><use transform="matrix(0.013147177562150295,0,0,0.013147177562150295,43.99045612295489,0)" xlink:href="#as"/></g><g id="i"><use transform="matrix(0.013020833333333334,0,0,0.013020833333333334,0,0)" xlink:href="#al"/><use transform="matrix(0.013020833333333334,0,0,0.013020833333333334,14.973958333333334,0)" xlink:href="#an"/><use transform="matrix(0.013020833333333334,0,0,0.013020833333333334,29.049479166666668,0)" xlink:href="#ah"/></g><path d="M678-1118v154H420V0H240v-964H20v-154h220v-149c0-194 155-293 318-293 85 0 141 18 168 30l-50 154c-19-6-47-17-97-17-111 0-159 58-159 166v109h258" id="at"/><g id="j"><use transform="matrix(0.013020833333333334,0,0,0.013020833333333334,0,0)" xlink:href="#at"/><use transform="matrix(0.013020833333333334,0,0,0.013020833333333334,9.869791666666668,0)" xlink:href="#aq"/><use transform="matrix(0.013020833333333334,0,0,0.013020833333333334,16.328125,0)" xlink:href="#Z"/><use transform="matrix(0.013020833333333334,0,0,0.013020833333333334,22.786458333333336,0)" xlink:href="#ab"/><use transform="matrix(0.013020833333333334,0,0,0.013020833333333334,38.333333333333336,0)" xlink:href="#an"/></g><g id="k"><use transform="matrix(0.013020833333333334,0,0,0.013020833333333334,0,0)" xlink:href="#as"/><use transform="matrix(0.013020833333333334,0,0,0.013020833333333334,17.109375,0)" xlink:href="#af"/><use transform="matrix(0.013020833333333334,0,0,0.013020833333333334,32.34375,0)" xlink:href="#ac"/><use transform="matrix(0.013020833333333334,0,0,0.013020833333333334,42.799479166666664,0)" xlink:href="#aq"/><use transform="matrix(0.013020833333333334,0,0,0.013020833333333334,49.2578125,0)" xlink:href="#ah"/><use transform="matrix(0.013020833333333334,0,0,0.013020833333333334,65.5859375,0)" xlink:href="#X"/></g><g id="l"><use transform="matrix(0.013020833333333334,0,0,0.013020833333333334,0,0)" xlink:href="#Y"/><use transform="matrix(0.013020833333333334,0,0,0.013020833333333334,15.7421875,0)" xlink:href="#aq"/><use transform="matrix(0.013020833333333334,0,0,0.013020833333333334,22.200520833333336,0)" xlink:href="#Z"/><use transform="matrix(0.013020833333333334,0,0,0.013020833333333334,28.658854166666675,0)" xlink:href="#ab"/><use transform="matrix(0.013020833333333334,0,0,0.013020833333333334,44.20572916666667,0)" xlink:href="#an"/></g><path d="M458 0L52-1490h194c108 439 233 855 324 1313 92-459 221-873 331-1313h216c110 438 234 854 330 1307 92-455 216-869 323-1307h196L1558 0h-221l-256-944c-26-95-50-200-73-331-22 122-44 223-73 331L680 0H458" id="au"/><path d="M677 24c-213 0-288-135-325-197h-20V0H158v-1490h180v551h14c37-59 106-193 324-193 279 0 474 222 474 576 0 356-194 580-473 580zm-27-161c209 0 317-186 317-421 0-232-105-413-317-413-206 0-314 166-314 413 0 249 111 421 314 421" id="av"/><path d="M409 0L70-1118h191c89 329 165 560 243 925 75-353 154-601 240-925h192c85 325 161 564 235 922 77-354 157-598 244-922h191L1267 0h-179c-86-307-176-590-250-913C763-588 675-308 588 0H409" id="aw"/><g id="m"><use transform="matrix(0.013020833333333334,0,0,0.013020833333333334,0,0)" xlink:href="#au"/><use transform="matrix(0.013020833333333334,0,0,0.013020833333333334,24.921875,0)" xlink:href="#ab"/><use transform="matrix(0.013020833333333334,0,0,0.013020833333333334,40.46875,0)" xlink:href="#av"/><use transform="matrix(0.013020833333333334,0,0,0.013020833333333334,56.796875,0)" xlink:href="#at"/><use transform="matrix(0.013020833333333334,0,0,0.013020833333333334,66.66666666666667,0)" xlink:href="#Z"/><use transform="matrix(0.013020833333333334,0,0,0.013020833333333334,73.125,0)" xlink:href="#W"/><use transform="matrix(0.013020833333333334,0,0,0.013020833333333334,88.6328125,0)" xlink:href="#aw"/></g><g id="n"><use transform="matrix(0.013020833333333334,0,0,0.013020833333333334,0,0)" xlink:href="#at"/><use transform="matrix(0.013020833333333334,0,0,0.013020833333333334,9.088541666666668,0)" xlink:href="#W"/><use transform="matrix(0.013020833333333334,0,0,0.013020833333333334,25.078125,0)" xlink:href="#Z"/><use transform="matrix(0.013020833333333334,0,0,0.013020833333333334,31.536458333333336,0)" xlink:href="#aa"/><use transform="matrix(0.013020833333333334,0,0,0.013020833333333334,47.864583333333336,0)" xlink:href="#ab"/><use transform="matrix(0.013020833333333334,0,0,0.013020833333333334,63.411458333333336,0)" xlink:href="#ac"/></g><g id="o"><use transform="matrix(0.013020833333333334,0,0,0.013020833333333334,0,0)" xlink:href="#as"/><use transform="matrix(0.013020833333333334,0,0,0.013020833333333334,17.109375,0)" xlink:href="#X"/><use transform="matrix(0.013020833333333334,0,0,0.013020833333333334,26.354166666666664,0)" xlink:href="#ai"/><use transform="matrix(0.013020833333333334,0,0,0.013020833333333334,41.471354166666664,0)" xlink:href="#Z"/><use transform="matrix(0.013020833333333334,0,0,0.013020833333333334,47.9296875,0)" xlink:href="#ab"/></g><g id="p"><use transform="matrix(0.013020833333333334,0,0,0.013020833333333334,0,0)" xlink:href="#aq"/><use transform="matrix(0.013020833333333334,0,0,0.013020833333333334,6.458333333333334,0)" xlink:href="#an"/><use transform="matrix(0.013020833333333334,0,0,0.013020833333333334,20.533854166666668,0)" xlink:href="#W"/><use transform="matrix(0.013020833333333334,0,0,0.013020833333333334,36.5234375,0)" xlink:href="#Z"/><use transform="matrix(0.013020833333333334,0,0,0.013020833333333334,42.981770833333336,0)" xlink:href="#al"/><use transform="matrix(0.013020833333333334,0,0,0.013020833333333334,57.95572916666667,0)" xlink:href="#X"/><use transform="matrix(0.013020833333333334,0,0,0.013020833333333334,66.41927083333334,0)" xlink:href="#ab"/><use transform="matrix(0.013020833333333334,0,0,0.013020833333333334,81.96614583333334,0)" xlink:href="#aa"/></g><g id="q"><use transform="matrix(0.013020833333333334,0,0,0.013020833333333334,0,0)" xlink:href="#Y"/><use transform="matrix(0.013020833333333334,0,0,0.013020833333333334,14.6875,0)" xlink:href="#W"/><use transform="matrix(0.013020833333333334,0,0,0.013020833333333334,30.677083333333336,0)" xlink:href="#W"/><use transform="matrix(0.013020833333333334,0,0,0.013020833333333334,46.66666666666667,0)" xlink:href="#X"/><use transform="matrix(0.013020833333333334,0,0,0.013020833333333334,55.13020833333335,0)" xlink:href="#ab"/><use transform="matrix(0.013020833333333334,0,0,0.013020833333333334,70.67708333333334,0)" xlink:href="#ac"/></g><g id="r"><use transform="matrix(0.013020833333333334,0,0,0.013020833333333334,0,0)" xlink:href="#aj"/><use transform="matrix(0.013020833333333334,0,0,0.013020833333333334,7.161458333333334,0)" xlink:href="#an"/><use transform="matrix(0.013020833333333334,0,0,0.013020833333333334,21.236979166666668,0)" xlink:href="#W"/><use transform="matrix(0.013020833333333334,0,0,0.013020833333333334,37.2265625,0)" xlink:href="#Z"/><use transform="matrix(0.013020833333333334,0,0,0.013020833333333334,43.684895833333336,0)" xlink:href="#al"/><use transform="matrix(0.013020833333333334,0,0,0.013020833333333334,58.65885416666667,0)" xlink:href="#X"/><use transform="matrix(0.013020833333333334,0,0,0.013020833333333334,67.12239583333334,0)" xlink:href="#ab"/><use transform="matrix(0.013020833333333334,0,0,0.013020833333333334,82.66927083333334,0)" xlink:href="#aa"/></g><path d="M338-670V0H158v-1118h173l1 207c72-158 192-221 342-221 226 0 378 139 378 422V0H872v-695c0-172-96-275-252-275-161 0-282 109-282 300" id="ax"/><g id="s"><use transform="matrix(0.013020833333333334,0,0,0.013020833333333334,0,0)" xlink:href="#ak"/><use transform="matrix(0.013020833333333334,0,0,0.013020833333333334,23.359375,0)" xlink:href="#ab"/><use transform="matrix(0.013020833333333334,0,0,0.013020833333333334,38.90625,0)" xlink:href="#ax"/><use transform="matrix(0.013020833333333334,0,0,0.013020833333333334,54.661458333333336,0)" xlink:href="#ae"/></g><path d="M338-670V0H158v-1490h180v566c73-149 190-208 336-208 226 0 379 139 379 422V0H872v-695c0-172-96-275-252-275-161 0-282 109-282 300" id="ay"/><g id="t"><use transform="matrix(0.013020833333333334,0,0,0.013020833333333334,0,0)" xlink:href="#as"/><use transform="matrix(0.013020833333333334,0,0,0.013020833333333334,17.109375,0)" xlink:href="#ab"/><use transform="matrix(0.013020833333333334,0,0,0.013020833333333334,32.91666666666667,0)" xlink:href="#al"/><use transform="matrix(0.013020833333333334,0,0,0.013020833333333334,47.89062500000001,0)" xlink:href="#ac"/><use transform="matrix(0.013020833333333334,0,0,0.013020833333333334,57.48697916666667,0)" xlink:href="#af"/><use transform="matrix(0.013020833333333334,0,0,0.013020833333333334,72.72135416666667,0)" xlink:href="#ay"/></g><g id="u"><use transform="matrix(0.013020833333333334,0,0,0.013020833333333334,0,0)" xlink:href="#as"/><use transform="matrix(0.013020833333333334,0,0,0.013020833333333334,17.109375,0)" xlink:href="#X"/><use transform="matrix(0.013020833333333334,0,0,0.013020833333333334,26.354166666666664,0)" xlink:href="#ai"/><use transform="matrix(0.013020833333333334,0,0,0.013020833333333334,41.471354166666664,0)" xlink:href="#Z"/><use transform="matrix(0.013020833333333334,0,0,0.013020833333333334,47.9296875,0)" xlink:href="#ab"/><use transform="matrix(0.013020833333333334,0,0,0.013020833333333334,63.4765625,0)" xlink:href="#an"/></g><g id="v"><use transform="matrix(0.013020833333333334,0,0,0.013020833333333334,0,0)" xlink:href="#al"/><use transform="matrix(0.013020833333333334,0,0,0.013020833333333334,14.973958333333334,0)" xlink:href="#ax"/><use transform="matrix(0.013020833333333334,0,0,0.013020833333333334,30.729166666666668,0)" xlink:href="#aa"/></g><g id="w"><use transform="matrix(0.013020833333333334,0,0,0.013020833333333334,0,0)" xlink:href="#as"/><use transform="matrix(0.013020833333333334,0,0,0.013020833333333334,17.109375,0)" xlink:href="#af"/><use transform="matrix(0.013020833333333334,0,0,0.013020833333333334,32.34375,0)" xlink:href="#ac"/><use transform="matrix(0.013020833333333334,0,0,0.013020833333333334,42.799479166666664,0)" xlink:href="#aq"/><use transform="matrix(0.013020833333333334,0,0,0.013020833333333334,49.2578125,0)" xlink:href="#ah"/><use transform="matrix(0.013020833333333334,0,0,0.013020833333333334,65.5859375,0)" xlink:href="#X"/><use transform="matrix(0.013020833333333334,0,0,0.013020833333333334,74.04947916666666,0)" xlink:href="#an"/></g><g id="x"><use transform="matrix(0.013020833333333334,0,0,0.013020833333333334,0,0)" xlink:href="#al"/><use transform="matrix(0.013020833333333334,0,0,0.013020833333333334,14.973958333333334,0)" xlink:href="#an"/><use transform="matrix(0.013020833333333334,0,0,0.013020833333333334,29.049479166666668,0)" xlink:href="#an"/><use transform="matrix(0.013020833333333334,0,0,0.013020833333333334,43.125,0)" xlink:href="#ab"/><use transform="matrix(0.013020833333333334,0,0,0.013020833333333334,58.671875,0)" xlink:href="#X"/><use transform="matrix(0.013020833333333334,0,0,0.013020833333333334,67.13541666666667,0)" xlink:href="#an"/></g><path d="M52 0l541-1490h220L1361 0h-200l-149-416H398L254 0H52zm404-582h497c-103-290-145-390-251-756-108 377-145 460-246 756" id="az"/><g id="y"><use transform="matrix(0.013020833333333334,0,0,0.013020833333333334,0,0)" xlink:href="#az"/><use transform="matrix(0.013020833333333334,0,0,0.013020833333333334,18.3984375,0)" xlink:href="#Z"/><use transform="matrix(0.013020833333333334,0,0,0.013020833333333334,24.856770833333336,0)" xlink:href="#Z"/></g><path d="M784 20c-382 0-662-292-662-764 0-473 280-766 662-766s660 293 660 766c0 472-278 764-660 764zm0-176c266 0 475-207 475-588 0-383-209-590-475-590-268 0-477 208-477 590 0 380 209 588 477 588" id="aA"/><g id="z"><use transform="matrix(0.013020833333333334,0,0,0.013020833333333334,0,0)" xlink:href="#aA"/><use transform="matrix(0.013020833333333334,0,0,0.013020833333333334,20.390625,0)" xlink:href="#X"/><use transform="matrix(0.013020833333333334,0,0,0.013020833333333334,29.114583333333336,0)" xlink:href="#ay"/><use transform="matrix(0.013020833333333334,0,0,0.013020833333333334,44.8828125,0)" xlink:href="#ab"/><use transform="matrix(0.013020833333333334,0,0,0.013020833333333334,60.4296875,0)" xlink:href="#ac"/></g><g id="A"><use transform="matrix(0.013020833333333334,0,0,0.013020833333333334,0,0)" xlink:href="#Y"/><use transform="matrix(0.013020833333333334,0,0,0.013020833333333334,14.6875,0)" xlink:href="#W"/><use transform="matrix(0.013020833333333334,0,0,0.013020833333333334,30.677083333333336,0)" xlink:href="#Z"/><use transform="matrix(0.013020833333333334,0,0,0.013020833333333334,37.13541666666667,0)" xlink:href="#aa"/><use transform="matrix(0.013020833333333334,0,0,0.013020833333333334,53.46354166666667,0)" xlink:href="#ab"/><use transform="matrix(0.013020833333333334,0,0,0.013020833333333334,69.01041666666667,0)" xlink:href="#ac"/><use transform="matrix(0.013020833333333334,0,0,0.013020833333333334,79.04947916666667,0)" xlink:href="#an"/></g><g id="B"><use transform="matrix(0.013020833333333334,0,0,0.013020833333333334,0,0)" xlink:href="#ag"/><use transform="matrix(0.013020833333333334,0,0,0.013020833333333334,19.479166666666668,0)" xlink:href="#W"/><use transform="matrix(0.013020833333333334,0,0,0.013020833333333334,35.46875,0)" xlink:href="#aa"/><use transform="matrix(0.013020833333333334,0,0,0.013020833333333334,51.796875,0)" xlink:href="#ab"/></g><path d="M180 0v-1490h908v168H370v486h669v168H370v500h727V0H180" id="aB"/><g id="C"><use transform="matrix(0.013020833333333334,0,0,0.013020833333333334,0,0)" xlink:href="#aB"/><use transform="matrix(0.013020833333333334,0,0,0.013020833333333334,16.028645833333336,0)" xlink:href="#ak"/><use transform="matrix(0.013020833333333334,0,0,0.013020833333333334,39.388020833333336,0)" xlink:href="#av"/><use transform="matrix(0.013020833333333334,0,0,0.013020833333333334,55.716145833333336,0)" xlink:href="#ab"/><use transform="matrix(0.013020833333333334,0,0,0.013020833333333334,71.26302083333334,0)" xlink:href="#aa"/><use transform="matrix(0.013020833333333334,0,0,0.013020833333333334,87.59114583333334,0)" xlink:href="#an"/></g><g id="D"><use transform="matrix(0.013020833333333334,0,0,0.013020833333333334,0,0)" xlink:href="#ah"/><use transform="matrix(0.013020833333333334,0,0,0.013020833333333334,16.328125,0)" xlink:href="#ay"/><use transform="matrix(0.013020833333333334,0,0,0.013020833333333334,32.09635416666667,0)" xlink:href="#ah"/></g><g id="E"><use transform="matrix(0.013020833333333334,0,0,0.013020833333333334,0,0)" xlink:href="#at"/><use transform="matrix(0.013020833333333334,0,0,0.013020833333333334,9.088541666666668,0)" xlink:href="#W"/><use transform="matrix(0.013020833333333334,0,0,0.013020833333333334,25.078125,0)" xlink:href="#ac"/><use transform="matrix(0.013020833333333334,0,0,0.013020833333333334,35.53385416666667,0)" xlink:href="#ak"/></g><g id="F"><use transform="matrix(0.013020833333333334,0,0,0.013020833333333334,0,0)" xlink:href="#ad"/><use transform="matrix(0.013020833333333334,0,0,0.013020833333333334,16.888020833333332,0)" xlink:href="#W"/><use transform="matrix(0.013020833333333334,0,0,0.013020833333333334,32.877604166666664,0)" xlink:href="#ac"/><use transform="matrix(0.013020833333333334,0,0,0.013020833333333334,42.47395833333333,0)" xlink:href="#af"/><use transform="matrix(0.013020833333333334,0,0,0.013020833333333334,57.70833333333332,0)" xlink:href="#ab"/><use transform="matrix(0.013020833333333334,0,0,0.013020833333333334,73.25520833333333,0)" xlink:href="#an"/><use transform="matrix(0.013020833333333334,0,0,0.013020833333333334,87.33072916666666,0)" xlink:href="#an"/><use transform="matrix(0.013020833333333334,0,0,0.013020833333333334,101.40624999999999,0)" xlink:href="#W"/><use transform="matrix(0.013020833333333334,0,0,0.013020833333333334,117.39583333333331,0)" xlink:href="#ac"/></g><path d="M65 0l393-574-370-544h210c88 136 192 297 267 435 67-142 176-302 264-435h206L661-564 1053 0H844c-94-144-206-310-287-458C484-308 366-142 273 0H65" id="aC"/><path d="M295 13c-75 0-135-60-135-135s60-135 135-135 135 60 135 135S370 13 295 13" id="aD"/><g id="G"><use transform="matrix(0.013020833333333334,0,0,0.013020833333333334,0,0)" xlink:href="#aq"/><use transform="matrix(0.013020833333333334,0,0,0.013020833333333334,6.458333333333334,0)" xlink:href="#ax"/><use transform="matrix(0.013020833333333334,0,0,0.013020833333333334,22.213541666666668,0)" xlink:href="#aa"/><use transform="matrix(0.013020833333333334,0,0,0.013020833333333334,38.54166666666667,0)" xlink:href="#ab"/><use transform="matrix(0.013020833333333334,0,0,0.013020833333333334,53.489583333333336,0)" xlink:href="#aC"/><use transform="matrix(0.013020833333333334,0,0,0.013020833333333334,68.046875,0)" xlink:href="#aD"/><use transform="matrix(0.013020833333333334,0,0,0.013020833333333334,75.72916666666667,0)" xlink:href="#ay"/><use transform="matrix(0.013020833333333334,0,0,0.013020833333333334,91.49739583333334,0)" xlink:href="#X"/><use transform="matrix(0.013020833333333334,0,0,0.013020833333333334,100.22135416666667,0)" xlink:href="#ak"/><use transform="matrix(0.013020833333333334,0,0,0.013020833333333334,123.58072916666667,0)" xlink:href="#Z"/></g><g id="H"><use transform="matrix(0.013020833333333334,0,0,0.013020833333333334,0,0)" xlink:href="#ah"/><use transform="matrix(0.013020833333333334,0,0,0.013020833333333334,16.588541666666668,0)" xlink:href="#al"/><use transform="matrix(0.013020833333333334,0,0,0.013020833333333334,31.5625,0)" xlink:href="#am"/><use transform="matrix(0.013020833333333334,0,0,0.013020833333333334,47.91666666666667,0)" xlink:href="#ab"/><use transform="matrix(0.013020833333333334,0,0,0.013020833333333334,63.46354166666667,0)" xlink:href="#an"/></g><g id="I"><use transform="matrix(0.013020833333333334,0,0,0.013020833333333334,0,0)" xlink:href="#at"/><use transform="matrix(0.013020833333333334,0,0,0.013020833333333334,9.088541666666668,0)" xlink:href="#W"/><use transform="matrix(0.013020833333333334,0,0,0.013020833333333334,25.078125,0)" xlink:href="#Z"/><use transform="matrix(0.013020833333333334,0,0,0.013020833333333334,31.536458333333336,0)" xlink:href="#aa"/><use transform="matrix(0.013020833333333334,0,0,0.013020833333333334,47.864583333333336,0)" xlink:href="#ab"/><use transform="matrix(0.013020833333333334,0,0,0.013020833333333334,63.411458333333336,0)" xlink:href="#ac"/></g><path d="M481 0L54-1118h197c107 314 236 620 325 951 87-331 217-637 324-951h197L670 0H481" id="aE"/><g id="J"><use transform="matrix(0.020687061183550657,0,0,0.020687061183550657,0,0)" xlink:href="#as"/><use transform="matrix(0.020687061183550657,0,0,0.020687061183550657,27.182798395185568,0)" xlink:href="#ab"/><use transform="matrix(0.020687061183550657,0,0,0.020687061183550657,51.883149448345044,0)" xlink:href="#ac"/><use transform="matrix(0.020687061183550657,0,0,0.020687061183550657,68.49485957873623,0)" xlink:href="#aE"/><use transform="matrix(0.020687061183550657,0,0,0.020687061183550657,91.47818455366101,0)" xlink:href="#ab"/><use transform="matrix(0.020687061183550657,0,0,0.020687061183550657,116.17853560682049,0)" xlink:href="#ac"/></g><g id="K"><use transform="matrix(0.020687061183550657,0,0,0.020687061183550657,0,0)" xlink:href="#V"/><use transform="matrix(0.020687061183550657,0,0,0.020687061183550657,26.644934804413246,0)" xlink:href="#W"/><use transform="matrix(0.020687061183550657,0,0,0.020687061183550657,52.048645937813454,0)" xlink:href="#W"/><use transform="matrix(0.020687061183550657,0,0,0.020687061183550657,77.45235707121365,0)" xlink:href="#X"/></g><g id="L"><use transform="matrix(0.020687061183550657,0,0,0.020687061183550657,0,0)" xlink:href="#ag"/><use transform="matrix(0.020687061183550657,0,0,0.020687061183550657,30.947843530591786,0)" xlink:href="#W"/><use transform="matrix(0.020687061183550657,0,0,0.020687061183550657,56.351554663992,0)" xlink:href="#ax"/><use transform="matrix(0.020687061183550657,0,0,0.020687061183550657,81.38289869608828,0)" xlink:href="#at"/><use transform="matrix(0.020687061183550657,0,0,0.020687061183550657,97.06369107321966,0)" xlink:href="#aq"/><use transform="matrix(0.020687061183550657,0,0,0.020687061183550657,107.32447342026079,0)" xlink:href="#am"/></g><g id="M"><use transform="matrix(0.013020833333333334,0,0,0.013020833333333334,0,0)" xlink:href="#az"/><use transform="matrix(0.013020833333333334,0,0,0.013020833333333334,18.3984375,0)" xlink:href="#Z"/><use transform="matrix(0.013020833333333334,0,0,0.013020833333333334,24.856770833333336,0)" xlink:href="#Z"/></g><g id="N"><use transform="matrix(0.013020833333333334,0,0,0.013020833333333334,0,0)" xlink:href="#W"/><use transform="matrix(0.013020833333333334,0,0,0.013020833333333334,15.989583333333334,0)" xlink:href="#X"/><use transform="matrix(0.013020833333333334,0,0,0.013020833333333334,24.713541666666668,0)" xlink:href="#ay"/><use transform="matrix(0.013020833333333334,0,0,0.013020833333333334,40.481770833333336,0)" xlink:href="#ab"/><use transform="matrix(0.013020833333333334,0,0,0.013020833333333334,56.028645833333336,0)" xlink:href="#ac"/></g><g id="O"><use transform="matrix(0.013020833333333334,0,0,0.013020833333333334,0,0)" xlink:href="#ay"/><use transform="matrix(0.013020833333333334,0,0,0.013020833333333334,15.768229166666668,0)" xlink:href="#X"/><use transform="matrix(0.013020833333333334,0,0,0.013020833333333334,24.4921875,0)" xlink:href="#ak"/><use transform="matrix(0.013020833333333334,0,0,0.013020833333333334,47.8515625,0)" xlink:href="#Z"/></g><g id="P"><use transform="matrix(0.013020833333333334,0,0,0.013020833333333334,0,0)" xlink:href="#at"/><use transform="matrix(0.013020833333333334,0,0,0.013020833333333334,9.869791666666668,0)" xlink:href="#aq"/><use transform="matrix(0.013020833333333334,0,0,0.013020833333333334,16.328125,0)" xlink:href="#Z"/><use transform="matrix(0.013020833333333334,0,0,0.013020833333333334,22.786458333333336,0)" xlink:href="#ab"/><use transform="matrix(0.013020833333333334,0,0,0.013020833333333334,38.333333333333336,0)" xlink:href="#an"/></g><g id="Q"><use transform="matrix(0.013020833333333334,0,0,0.013020833333333334,0,0)" xlink:href="#aA"/><use transform="matrix(0.013020833333333334,0,0,0.013020833333333334,20.390625,0)" xlink:href="#ac"/><use transform="matrix(0.013020833333333334,0,0,0.013020833333333334,30.846354166666668,0)" xlink:href="#aq"/><use transform="matrix(0.013020833333333334,0,0,0.013020833333333334,37.3046875,0)" xlink:href="#am"/><use transform="matrix(0.013020833333333334,0,0,0.013020833333333334,53.65885416666667,0)" xlink:href="#aq"/><use transform="matrix(0.013020833333333334,0,0,0.013020833333333334,60.1171875,0)" xlink:href="#ax"/><use transform="matrix(0.013020833333333334,0,0,0.013020833333333334,75.87239583333334,0)" xlink:href="#al"/><use transform="matrix(0.013020833333333334,0,0,0.013020833333333334,90.84635416666667,0)" xlink:href="#Z"/></g><g id="R"><use transform="matrix(0.013020833333333334,0,0,0.013020833333333334,0,0)" xlink:href="#au"/><use transform="matrix(0.013020833333333334,0,0,0.013020833333333334,24.921875,0)" xlink:href="#ab"/><use transform="matrix(0.013020833333333334,0,0,0.013020833333333334,40.46875,0)" xlink:href="#av"/><use transform="matrix(0.013020833333333334,0,0,0.013020833333333334,56.796875,0)" xlink:href="#at"/><use transform="matrix(0.013020833333333334,0,0,0.013020833333333334,66.66666666666667,0)" xlink:href="#Z"/><use transform="matrix(0.013020833333333334,0,0,0.013020833333333334,73.125,0)" xlink:href="#W"/><use transform="matrix(0.013020833333333334,0,0,0.013020833333333334,88.6328125,0)" xlink:href="#aw"/></g><g id="S"><use transform="matrix(0.013020833333333334,0,0,0.013020833333333334,0,0)" xlink:href="#aB"/><use transform="matrix(0.013020833333333334,0,0,0.013020833333333334,16.028645833333336,0)" xlink:href="#aC"/><use transform="matrix(0.013020833333333334,0,0,0.013020833333333334,30.5859375,0)" xlink:href="#ah"/><use transform="matrix(0.013020833333333334,0,0,0.013020833333333334,46.9140625,0)" xlink:href="#W"/><use transform="matrix(0.013020833333333334,0,0,0.013020833333333334,62.903645833333336,0)" xlink:href="#ac"/><use transform="matrix(0.013020833333333334,0,0,0.013020833333333334,73.359375,0)" xlink:href="#X"/></g><path d="M180 0v-1490h190v644h782v-644h190V0h-190v-678H370V0H180" id="aF"/><g id="T"><use transform="matrix(0.013967899227956116,0,0,0.013967899227956116,0,0)" xlink:href="#ad"/><use transform="matrix(0.013967899227956116,0,0,0.013967899227956116,18.2700121901666,0)" xlink:href="#aF"/><use transform="matrix(0.013967899227956116,0,0,0.013967899227956116,39.52915481511581,0)" xlink:href="#ad"/></g><g id="U"><use transform="matrix(0.013967899227956116,0,0,0.013967899227956116,0,0)" xlink:href="#az"/><use transform="matrix(0.013967899227956116,0,0,0.013967899227956116,19.73664160910199,0)" xlink:href="#ah"/><use transform="matrix(0.013967899227956116,0,0,0.013967899227956116,37.25238724095896,0)" xlink:href="#ah"/><use transform="matrix(0.013967899227956116,0,0,0.013967899227956116,54.76813287281593,0)" xlink:href="#Z"/><use transform="matrix(0.013967899227956116,0,0,0.013967899227956116,61.69621088988217,0)" xlink:href="#aq"/><use transform="matrix(0.013967899227956116,0,0,0.013967899227956116,68.62428890694841,0)" xlink:href="#af"/><use transform="matrix(0.013967899227956116,0,0,0.013967899227956116,85.24608898821619,0)" xlink:href="#al"/><use transform="matrix(0.013967899227956116,0,0,0.013967899227956116,101.30917310036573,0)" xlink:href="#X"/><use transform="matrix(0.013967899227956116,0,0,0.013967899227956116,110.66766558309631,0)" xlink:href="#aq"/><use transform="matrix(0.013967899227956116,0,0,0.013967899227956116,117.59574360016255,0)" xlink:href="#W"/><use transform="matrix(0.013967899227956116,0,0,0.013967899227956116,134.74832385209265,0)" xlink:href="#ax"/></g></defs></g></svg>