<svg xmlns="http://www.w3.org/2000/svg" xmlns:xlink="http://www.w3.org/1999/xlink" width="720" zoomAndPan="magnify" viewBox="0 0 540 76.499998" height="102" preserveAspectRatio="xMidYMid meet" version="1.0"><defs><g/><clipPath id="0098b71603"><path d="M 0.457031 4 L 17 4 L 17 53 L 0.457031 53 Z M 0.457031 4 " clip-rule="nonzero"/></clipPath><clipPath id="b791a7a7ce"><rect x="0" width="425" y="0" height="61"/></clipPath><clipPath id="4717ca7095"><path d="M 211 41 L 332 41 L 332 76.003906 L 211 76.003906 Z M 211 41 " clip-rule="nonzero"/></clipPath><clipPath id="362753787d"><rect x="0" width="121" y="0" height="36"/></clipPath></defs><g transform="matrix(1, 0, 0, 1, 59, 0)"><g clip-path="url(#b791a7a7ce)"><g clip-path="url(#0098b71603)"><g fill="#fffcf8" fill-opacity="1"><g transform="translate(0.779691, 41.749629)"><g><path d="M 16 10.25 L 14.5625 10.25 L 0 -37.421875 L 1.4375 -37.421875 Z M 16 10.25 "/></g></g></g></g><g fill="#fffcf8" fill-opacity="1"><g transform="translate(16.768882, 41.749629)"><g/></g></g><g fill="#fffcf8" fill-opacity="1"><g transform="translate(30.349458, 41.749629)"><g><path d="M 14.09375 0 L 10 0 L 10 -32.046875 L 0.765625 -32.046875 L 0.765625 -35.890625 L 23.328125 -35.890625 L 23.328125 -32.046875 L 14.09375 -32.046875 Z M 14.09375 0 "/></g></g></g><g fill="#fffcf8" fill-opacity="1"><g transform="translate(54.435747, 41.749629)"><g><path d="M 26.921875 -18.96875 L 26.921875 -35.890625 L 31.015625 -35.890625 L 31.015625 0 L 26.921875 0 L 26.921875 -17.9375 L 7.953125 -17.9375 L 7.953125 0 L 3.84375 0 L 3.84375 -35.890625 L 7.953125 -35.890625 L 7.953125 -18.96875 Z M 26.921875 -18.96875 "/></g></g></g><g fill="#fffcf8" fill-opacity="1"><g transform="translate(89.283983, 41.749629)"><g><path d="M 7.953125 -18.203125 L 7.953125 -3.84375 L 23.328125 -3.84375 L 23.328125 0 L 3.84375 0 L 3.84375 -35.890625 L 22.8125 -35.890625 L 22.8125 -32.046875 L 7.953125 -32.046875 L 7.953125 -19.21875 L 22.046875 -19.21875 L 22.046875 -18.203125 Z M 7.953125 -18.203125 "/></g></g></g><g fill="#fffcf8" fill-opacity="1"><g transform="translate(115.010189, 41.749629)"><g><path d="M 19.078125 -19.21875 C 21.222656 -18.601562 22.910156 -17.535156 24.140625 -16.015625 C 25.367188 -14.492188 25.984375 -12.609375 25.984375 -10.359375 C 25.984375 -8.410156 25.472656 -6.648438 24.453125 -5.078125 C 23.429688 -3.503906 21.992188 -2.265625 20.140625 -1.359375 C 18.296875 -0.453125 16.195312 0 13.84375 0 L 3.84375 0 L 3.84375 -35.890625 L 13.328125 -35.890625 C 15.585938 -35.890625 17.5625 -35.484375 19.25 -34.671875 C 20.9375 -33.867188 22.222656 -32.757812 23.109375 -31.34375 C 24.003906 -29.925781 24.453125 -28.332031 24.453125 -26.5625 C 24.453125 -24.882812 23.984375 -23.394531 23.046875 -22.09375 C 22.109375 -20.789062 20.785156 -19.832031 19.078125 -19.21875 Z M 7.953125 -32.046875 L 7.953125 -19.484375 L 13.328125 -19.484375 C 15.484375 -19.484375 17.164062 -20.046875 18.375 -21.171875 C 19.59375 -22.296875 20.203125 -23.816406 20.203125 -25.734375 C 20.203125 -27.679688 19.59375 -29.21875 18.375 -30.34375 C 17.164062 -31.476562 15.484375 -32.046875 13.328125 -32.046875 Z M 13.84375 -3.84375 C 16.238281 -3.84375 18.148438 -4.515625 19.578125 -5.859375 C 21.015625 -7.210938 21.734375 -8.984375 21.734375 -11.171875 C 21.734375 -13.328125 21.015625 -15.078125 19.578125 -16.421875 C 18.148438 -17.773438 16.238281 -18.453125 13.84375 -18.453125 L 7.953125 -18.453125 L 7.953125 -3.84375 Z M 13.84375 -3.84375 "/></g></g></g><g fill="#fffcf8" fill-opacity="1"><g transform="translate(142.888778, 41.749629)"><g><path d="M 32.90625 0 L 28.5 0 L 24.34375 -10.515625 L 9.078125 -10.515625 L 4.921875 0 L 0.609375 0 L 15.21875 -35.890625 L 18.296875 -35.890625 Z M 16.71875 -29.78125 L 9.484375 -11.53125 L 23.9375 -11.53125 Z M 16.71875 -29.78125 "/></g></g></g><g fill="#fffcf8" fill-opacity="1"><g transform="translate(176.40459, 41.749629)"><g><path d="M 7.953125 -18.203125 L 7.953125 -3.84375 L 23.328125 -3.84375 L 23.328125 0 L 3.84375 0 L 3.84375 -35.890625 L 22.8125 -35.890625 L 22.8125 -32.046875 L 7.953125 -32.046875 L 7.953125 -19.21875 L 22.046875 -19.21875 L 22.046875 -18.203125 Z M 7.953125 -18.203125 "/></g></g></g><g fill="#fffcf8" fill-opacity="1"><g transform="translate(202.130796, 41.749629)"><g><path d="M 24.921875 0 L 11.59375 -16.65625 L 7.953125 -16.65625 L 7.953125 0 L 3.84375 0 L 3.84375 -35.890625 L 14.359375 -35.890625 C 16.648438 -35.890625 18.671875 -35.441406 20.421875 -34.546875 C 22.179688 -33.660156 23.546875 -32.441406 24.515625 -30.890625 C 25.492188 -29.335938 25.984375 -27.585938 25.984375 -25.640625 C 25.984375 -23.210938 25.117188 -21.210938 23.390625 -19.640625 C 21.671875 -18.066406 19.359375 -17.109375 16.453125 -16.765625 L 29.984375 0 Z M 7.953125 -32.046875 L 7.953125 -17.6875 L 14.359375 -17.6875 C 16.578125 -17.6875 18.359375 -18.328125 19.703125 -19.609375 C 21.054688 -20.890625 21.734375 -22.640625 21.734375 -24.859375 C 21.734375 -27.148438 21.078125 -28.921875 19.765625 -30.171875 C 18.453125 -31.421875 16.648438 -32.046875 14.359375 -32.046875 Z M 7.953125 -32.046875 "/></g></g></g><g fill="#fffcf8" fill-opacity="1"><g transform="translate(231.854309, 41.749629)"><g><path d="M 19.078125 -19.21875 C 21.222656 -18.601562 22.910156 -17.535156 24.140625 -16.015625 C 25.367188 -14.492188 25.984375 -12.609375 25.984375 -10.359375 C 25.984375 -8.410156 25.472656 -6.648438 24.453125 -5.078125 C 23.429688 -3.503906 21.992188 -2.265625 20.140625 -1.359375 C 18.296875 -0.453125 16.195312 0 13.84375 0 L 3.84375 0 L 3.84375 -35.890625 L 13.328125 -35.890625 C 15.585938 -35.890625 17.5625 -35.484375 19.25 -34.671875 C 20.9375 -33.867188 22.222656 -32.757812 23.109375 -31.34375 C 24.003906 -29.925781 24.453125 -28.332031 24.453125 -26.5625 C 24.453125 -24.882812 23.984375 -23.394531 23.046875 -22.09375 C 22.109375 -20.789062 20.785156 -19.832031 19.078125 -19.21875 Z M 7.953125 -32.046875 L 7.953125 -19.484375 L 13.328125 -19.484375 C 15.484375 -19.484375 17.164062 -20.046875 18.375 -21.171875 C 19.59375 -22.296875 20.203125 -23.816406 20.203125 -25.734375 C 20.203125 -27.679688 19.59375 -29.21875 18.375 -30.34375 C 17.164062 -31.476562 15.484375 -32.046875 13.328125 -32.046875 Z M 13.84375 -3.84375 C 16.238281 -3.84375 18.148438 -4.515625 19.578125 -5.859375 C 21.015625 -7.210938 21.734375 -8.984375 21.734375 -11.171875 C 21.734375 -13.328125 21.015625 -15.078125 19.578125 -16.421875 C 18.148438 -17.773438 16.238281 -18.453125 13.84375 -18.453125 L 7.953125 -18.453125 L 7.953125 -3.84375 Z M 13.84375 -3.84375 "/></g></g></g><g fill="#fffcf8" fill-opacity="1"><g transform="translate(259.732898, 41.749629)"><g><path d="M 32.046875 -32.25 C 34.160156 -30.539062 35.816406 -28.4375 37.015625 -25.9375 C 38.210938 -23.445312 38.8125 -20.78125 38.8125 -17.9375 C 38.8125 -14.59375 37.988281 -11.5 36.34375 -8.65625 C 34.707031 -5.820312 32.46875 -3.582031 29.625 -1.9375 C 26.789062 -0.300781 23.679688 0.515625 20.296875 0.515625 C 18.285156 0.515625 16.351562 0.21875 14.5 -0.375 C 12.65625 -0.976562 10.96875 -1.84375 9.4375 -2.96875 L 6.765625 0.515625 L 5.328125 0.515625 L 8.5625 -3.640625 C 6.445312 -5.347656 4.789062 -7.445312 3.59375 -9.9375 C 2.394531 -12.4375 1.796875 -15.101562 1.796875 -17.9375 C 1.796875 -21.289062 2.613281 -24.382812 4.25 -27.21875 C 5.894531 -30.0625 8.132812 -32.300781 10.96875 -33.9375 C 13.800781 -35.582031 16.910156 -36.40625 20.296875 -36.40625 C 22.316406 -36.40625 24.25 -36.101562 26.09375 -35.5 C 27.9375 -34.90625 29.628906 -34.039062 31.171875 -32.90625 L 33.828125 -36.40625 L 35.265625 -36.40625 Z M 6.046875 -17.9375 C 6.046875 -15.71875 6.476562 -13.648438 7.34375 -11.734375 C 8.21875 -9.828125 9.425781 -8.1875 10.96875 -6.8125 L 28.703125 -29.78125 C 26.210938 -31.625 23.410156 -32.546875 20.296875 -32.546875 C 17.703125 -32.546875 15.316406 -31.894531 13.140625 -30.59375 C 10.972656 -29.300781 9.25 -27.546875 7.96875 -25.328125 C 6.6875 -23.109375 6.046875 -20.644531 6.046875 -17.9375 Z M 20.296875 -3.328125 C 22.898438 -3.328125 25.285156 -3.976562 27.453125 -5.28125 C 29.617188 -6.582031 31.34375 -8.34375 32.625 -10.5625 C 33.90625 -12.78125 34.546875 -15.238281 34.546875 -17.9375 C 34.546875 -20.164062 34.109375 -22.234375 33.234375 -24.140625 C 32.367188 -26.054688 31.164062 -27.695312 29.625 -29.0625 L 11.890625 -6.09375 C 14.390625 -4.25 17.191406 -3.328125 20.296875 -3.328125 Z M 20.296875 -3.328125 "/></g></g></g><g fill="#fffcf8" fill-opacity="1"><g transform="translate(300.320843, 41.749629)"><g><path d="M 30.09375 -3.953125 L 30.09375 -35.890625 L 34.09375 -35.890625 L 34.09375 0 L 31.625 0 L 7.84375 -31.9375 L 7.84375 0 L 3.84375 0 L 3.84375 -35.890625 L 6.3125 -35.890625 Z M 30.09375 -3.953125 "/></g></g></g><g fill="#fffcf8" fill-opacity="1"><g transform="translate(338.243941, 41.749629)"><g><path d="M 7.953125 -18.203125 L 7.953125 -3.84375 L 23.328125 -3.84375 L 23.328125 0 L 3.84375 0 L 3.84375 -35.890625 L 22.8125 -35.890625 L 22.8125 -32.046875 L 7.953125 -32.046875 L 7.953125 -19.21875 L 22.046875 -19.21875 L 22.046875 -18.203125 Z M 7.953125 -18.203125 "/></g></g></g><g fill="#fffcf8" fill-opacity="1"><g transform="translate(363.970147, 41.749629)"><g><path d="M 14.40625 0.515625 C 11.945312 0.515625 9.773438 0.00390625 7.890625 -1.015625 C 6.015625 -2.046875 4.546875 -3.484375 3.484375 -5.328125 C 2.421875 -7.171875 1.859375 -9.328125 1.796875 -11.796875 L 5.890625 -11.796875 C 6.023438 -9.234375 6.835938 -7.179688 8.328125 -5.640625 C 9.816406 -4.097656 11.84375 -3.328125 14.40625 -3.328125 C 16.59375 -3.328125 18.332031 -3.863281 19.625 -4.9375 C 20.925781 -6.019531 21.578125 -7.453125 21.578125 -9.234375 C 21.578125 -10.628906 21.207031 -11.78125 20.46875 -12.6875 C 19.738281 -13.59375 18.828125 -14.300781 17.734375 -14.8125 C 16.640625 -15.320312 15.171875 -15.867188 13.328125 -16.453125 C 11.078125 -17.242188 9.285156 -17.972656 7.953125 -18.640625 C 6.617188 -19.304688 5.472656 -20.304688 4.515625 -21.640625 C 3.554688 -22.972656 3.078125 -24.734375 3.078125 -26.921875 C 3.078125 -28.691406 3.554688 -30.296875 4.515625 -31.734375 C 5.472656 -33.171875 6.78125 -34.304688 8.4375 -35.140625 C 10.09375 -35.984375 11.960938 -36.40625 14.046875 -36.40625 C 16.203125 -36.40625 18.140625 -35.914062 19.859375 -34.9375 C 21.585938 -33.957031 22.960938 -32.597656 23.984375 -30.859375 C 25.015625 -29.117188 25.582031 -27.117188 25.6875 -24.859375 L 21.578125 -24.859375 C 21.441406 -27.253906 20.671875 -29.132812 19.265625 -30.5 C 17.867188 -31.863281 16.078125 -32.546875 13.890625 -32.546875 C 12.015625 -32.546875 10.453125 -32.054688 9.203125 -31.078125 C 7.953125 -30.109375 7.328125 -28.722656 7.328125 -26.921875 C 7.328125 -25.617188 7.675781 -24.539062 8.375 -23.6875 C 9.082031 -22.832031 9.957031 -22.164062 11 -21.6875 C 12.039062 -21.207031 13.484375 -20.644531 15.328125 -20 C 17.546875 -19.28125 19.363281 -18.5625 20.78125 -17.84375 C 22.207031 -17.125 23.40625 -16.070312 24.375 -14.6875 C 25.351562 -13.300781 25.84375 -11.484375 25.84375 -9.234375 C 25.84375 -7.378906 25.34375 -5.707031 24.34375 -4.21875 C 23.351562 -2.738281 21.988281 -1.578125 20.25 -0.734375 C 18.507812 0.0976562 16.5625 0.515625 14.40625 0.515625 Z M 14.40625 0.515625 "/></g></g></g><g fill="#fffcf8" fill-opacity="1"><g transform="translate(391.592503, 41.749629)"><g/></g></g><g fill="#fffcf8" fill-opacity="1"><g transform="translate(405.173079, 41.749629)"><g><path d="M 16 10.25 L 14.5625 10.25 L 0 -37.421875 L 1.4375 -37.421875 Z M 16 10.25 "/></g></g></g></g></g><g clip-path="url(#4717ca7095)"><g transform="matrix(1, 0, 0, 1, 211, 41)"><g clip-path="url(#362753787d)"><g fill="#fffcf8" fill-opacity="1"><g transform="translate(0.20056, 31.761183)"><g><path d="M 8.265625 -20.65625 C 9.578125 -20.65625 10.738281 -20.398438 11.75 -19.890625 C 12.769531 -19.378906 13.5625 -18.675781 14.125 -17.78125 C 14.6875 -16.882812 14.96875 -15.878906 14.96875 -14.765625 C 14.96875 -13.710938 14.679688 -12.796875 14.109375 -12.015625 C 13.535156 -11.242188 12.742188 -10.644531 11.734375 -10.21875 C 10.722656 -9.800781 9.566406 -9.59375 8.265625 -9.59375 L 4.578125 -9.59375 L 4.578125 0 L 2.21875 0 L 2.21875 -20.65625 Z M 8.265625 -10.1875 C 9.546875 -10.1875 10.570312 -10.550781 11.34375 -11.28125 C 12.125 -12.019531 12.515625 -13.03125 12.515625 -14.3125 C 12.515625 -15.632812 12.132812 -16.65625 11.375 -17.375 C 10.613281 -18.09375 9.578125 -18.453125 8.265625 -18.453125 L 4.578125 -18.453125 L 4.578125 -10.1875 Z M 8.265625 -10.1875 "/></g></g></g><g fill="#fffcf8" fill-opacity="1"><g transform="translate(17.733336, 31.761183)"><g><path d="M 8.296875 0.296875 C 6.921875 0.296875 5.65625 -0.03125 4.5 -0.6875 C 3.351562 -1.351562 2.4375 -2.257812 1.75 -3.40625 C 1.070312 -4.5625 0.734375 -5.835938 0.734375 -7.234375 C 0.734375 -8.628906 1.070312 -9.898438 1.75 -11.046875 C 2.4375 -12.203125 3.351562 -13.109375 4.5 -13.765625 C 5.65625 -14.429688 6.921875 -14.765625 8.296875 -14.765625 C 9.671875 -14.765625 10.929688 -14.429688 12.078125 -13.765625 C 13.234375 -13.109375 14.148438 -12.203125 14.828125 -11.046875 C 15.503906 -9.898438 15.84375 -8.628906 15.84375 -7.234375 C 15.84375 -5.835938 15.503906 -4.5625 14.828125 -3.40625 C 14.148438 -2.257812 13.234375 -1.351562 12.078125 -0.6875 C 10.929688 -0.03125 9.671875 0.296875 8.296875 0.296875 Z M 8.296875 -1.765625 C 9.253906 -1.765625 10.128906 -2.003906 10.921875 -2.484375 C 11.722656 -2.972656 12.359375 -3.628906 12.828125 -4.453125 C 13.304688 -5.285156 13.546875 -6.210938 13.546875 -7.234375 C 13.546875 -8.253906 13.304688 -9.175781 12.828125 -10 C 12.359375 -10.832031 11.722656 -11.488281 10.921875 -11.96875 C 10.128906 -12.445312 9.253906 -12.6875 8.296875 -12.6875 C 7.328125 -12.6875 6.441406 -12.445312 5.640625 -11.96875 C 4.847656 -11.488281 4.21875 -10.832031 3.75 -10 C 3.28125 -9.175781 3.046875 -8.253906 3.046875 -7.234375 C 3.046875 -6.210938 3.28125 -5.285156 3.75 -4.453125 C 4.21875 -3.628906 4.847656 -2.972656 5.640625 -2.484375 C 6.441406 -2.003906 7.328125 -1.765625 8.296875 -1.765625 Z M 8.296875 -1.765625 "/></g></g></g><g fill="#fffcf8" fill-opacity="1"><g transform="translate(36.151588, 31.761183)"><g><path d="M 9.734375 -14.609375 L 9.734375 -12.546875 L 8.265625 -12.546875 C 7.472656 -12.546875 6.753906 -12.363281 6.109375 -12 C 5.460938 -11.632812 4.945312 -11.125 4.5625 -10.46875 C 4.175781 -9.820312 3.984375 -9.085938 3.984375 -8.265625 L 3.984375 0 L 1.765625 0 L 1.765625 -14.46875 L 3.984375 -14.46875 L 3.984375 -12.390625 C 4.578125 -13.117188 5.257812 -13.671875 6.03125 -14.046875 C 6.8125 -14.421875 7.65625 -14.609375 8.5625 -14.609375 Z M 9.734375 -14.609375 "/></g></g></g><g fill="#fffcf8" fill-opacity="1"><g transform="translate(47.574598, 31.761183)"><g><path d="M 8.109375 -13.875 L 4.421875 -13.875 L 4.421875 -4.421875 C 4.421875 -3.691406 4.632812 -3.113281 5.0625 -2.6875 C 5.488281 -2.269531 6.0625 -2.0625 6.78125 -2.0625 L 8.109375 -2.0625 L 8.109375 0 L 6.640625 0 C 5.316406 0 4.25 -0.394531 3.4375 -1.1875 C 2.625 -1.988281 2.21875 -3.019531 2.21875 -4.28125 L 2.21875 -13.875 L -0.140625 -13.875 L -0.140625 -14.46875 L 2.21875 -14.46875 L 2.21875 -18.296875 L 4.421875 -18.296875 L 4.421875 -14.46875 L 8.109375 -14.46875 Z M 8.109375 -13.875 "/></g></g></g><g fill="#fffcf8" fill-opacity="1"><g transform="translate(57.669401, 31.761183)"><g><path d="M 6.9375 -19.1875 C 6.207031 -19.1875 5.628906 -18.976562 5.203125 -18.5625 C 4.785156 -18.15625 4.578125 -17.578125 4.578125 -16.828125 L 4.578125 -14.46875 L 8.265625 -14.46875 L 8.265625 -13.875 L 4.578125 -13.875 L 4.578125 0 L 2.359375 0 L 2.359375 -13.875 L 0 -13.875 L 0 -14.46875 L 2.359375 -14.46875 L 2.359375 -16.96875 C 2.359375 -18.226562 2.765625 -19.253906 3.578125 -20.046875 C 4.398438 -20.847656 5.46875 -21.25 6.78125 -21.25 L 8.265625 -21.25 L 8.265625 -19.1875 Z M 6.9375 -19.1875 "/></g></g></g><g fill="#fffcf8" fill-opacity="1"><g transform="translate(67.321463, 31.761183)"><g><path d="M 8.296875 0.296875 C 6.921875 0.296875 5.65625 -0.03125 4.5 -0.6875 C 3.351562 -1.351562 2.4375 -2.257812 1.75 -3.40625 C 1.070312 -4.5625 0.734375 -5.835938 0.734375 -7.234375 C 0.734375 -8.628906 1.070312 -9.898438 1.75 -11.046875 C 2.4375 -12.203125 3.351562 -13.109375 4.5 -13.765625 C 5.65625 -14.429688 6.921875 -14.765625 8.296875 -14.765625 C 9.671875 -14.765625 10.929688 -14.429688 12.078125 -13.765625 C 13.234375 -13.109375 14.148438 -12.203125 14.828125 -11.046875 C 15.503906 -9.898438 15.84375 -8.628906 15.84375 -7.234375 C 15.84375 -5.835938 15.503906 -4.5625 14.828125 -3.40625 C 14.148438 -2.257812 13.234375 -1.351562 12.078125 -0.6875 C 10.929688 -0.03125 9.671875 0.296875 8.296875 0.296875 Z M 8.296875 -1.765625 C 9.253906 -1.765625 10.128906 -2.003906 10.921875 -2.484375 C 11.722656 -2.972656 12.359375 -3.628906 12.828125 -4.453125 C 13.304688 -5.285156 13.546875 -6.210938 13.546875 -7.234375 C 13.546875 -8.253906 13.304688 -9.175781 12.828125 -10 C 12.359375 -10.832031 11.722656 -11.488281 10.921875 -11.96875 C 10.128906 -12.445312 9.253906 -12.6875 8.296875 -12.6875 C 7.328125 -12.6875 6.441406 -12.445312 5.640625 -11.96875 C 4.847656 -11.488281 4.21875 -10.832031 3.75 -10 C 3.28125 -9.175781 3.046875 -8.253906 3.046875 -7.234375 C 3.046875 -6.210938 3.28125 -5.285156 3.75 -4.453125 C 4.21875 -3.628906 4.847656 -2.972656 5.640625 -2.484375 C 6.441406 -2.003906 7.328125 -1.765625 8.296875 -1.765625 Z M 8.296875 -1.765625 "/></g></g></g><g fill="#fffcf8" fill-opacity="1"><g transform="translate(85.739715, 31.761183)"><g><path d="M 4.125 0 L 1.921875 0 L 1.921875 -21.25 L 4.125 -21.25 Z M 4.125 0 "/></g></g></g><g fill="#fffcf8" fill-opacity="1"><g transform="translate(93.620834, 31.761183)"><g><path d="M 3.984375 0 L 1.765625 0 L 1.765625 -14.46875 L 3.984375 -14.46875 Z M 4.125 -17.5625 L 1.625 -17.5625 L 1.625 -18.453125 L 4.125 -18.453125 Z M 4.125 -17.5625 "/></g></g></g><g fill="#fffcf8" fill-opacity="1"><g transform="translate(101.206791, 31.761183)"><g><path d="M 8.296875 0.296875 C 6.921875 0.296875 5.65625 -0.03125 4.5 -0.6875 C 3.351562 -1.351562 2.4375 -2.257812 1.75 -3.40625 C 1.070312 -4.5625 0.734375 -5.835938 0.734375 -7.234375 C 0.734375 -8.628906 1.070312 -9.898438 1.75 -11.046875 C 2.4375 -12.203125 3.351562 -13.109375 4.5 -13.765625 C 5.65625 -14.429688 6.921875 -14.765625 8.296875 -14.765625 C 9.671875 -14.765625 10.929688 -14.429688 12.078125 -13.765625 C 13.234375 -13.109375 14.148438 -12.203125 14.828125 -11.046875 C 15.503906 -9.898438 15.84375 -8.628906 15.84375 -7.234375 C 15.84375 -5.835938 15.503906 -4.5625 14.828125 -3.40625 C 14.148438 -2.257812 13.234375 -1.351562 12.078125 -0.6875 C 10.929688 -0.03125 9.671875 0.296875 8.296875 0.296875 Z M 8.296875 -1.765625 C 9.253906 -1.765625 10.128906 -2.003906 10.921875 -2.484375 C 11.722656 -2.972656 12.359375 -3.628906 12.828125 -4.453125 C 13.304688 -5.285156 13.546875 -6.210938 13.546875 -7.234375 C 13.546875 -8.253906 13.304688 -9.175781 12.828125 -10 C 12.359375 -10.832031 11.722656 -11.488281 10.921875 -11.96875 C 10.128906 -12.445312 9.253906 -12.6875 8.296875 -12.6875 C 7.328125 -12.6875 6.441406 -12.445312 5.640625 -11.96875 C 4.847656 -11.488281 4.21875 -10.832031 3.75 -10 C 3.28125 -9.175781 3.046875 -8.253906 3.046875 -7.234375 C 3.046875 -6.210938 3.28125 -5.285156 3.75 -4.453125 C 4.21875 -3.628906 4.847656 -2.972656 5.640625 -2.484375 C 6.441406 -2.003906 7.328125 -1.765625 8.296875 -1.765625 Z M 8.296875 -1.765625 "/></g></g></g></g></g></g></svg>