<svg xmlns="http://www.w3.org/2000/svg" xmlns:xlink="http://www.w3.org/1999/xlink" width="100" zoomAndPan="magnify" viewBox="0 0 75 74.999997" height="100" preserveAspectRatio="xMidYMid meet" version="1.0"><defs><g/><clipPath id="c794ab1b8d"><path d="M 11.144531 8.488281 L 63.644531 8.488281 L 63.644531 60.988281 L 11.144531 60.988281 Z M 11.144531 8.488281 " clip-rule="nonzero"/></clipPath><clipPath id="17c1d07b13"><path d="M 37.496094 8.488281 C 22.941406 8.488281 11.144531 20.285156 11.144531 34.835938 C 11.144531 49.390625 22.941406 61.1875 37.496094 61.1875 C 52.046875 61.1875 63.84375 49.390625 63.84375 34.835938 C 63.84375 20.285156 52.046875 8.488281 37.496094 8.488281 Z M 37.496094 8.488281 " clip-rule="nonzero"/></clipPath></defs><g clip-path="url(#c794ab1b8d)"><g clip-path="url(#17c1d07b13)"><path stroke-linecap="butt" transform="matrix(0.75, 0, 0, 0.75, 11.145419, 8.487948)" fill="none" stroke-linejoin="miter" d="M 35.134236 0.000444991 C 15.727984 0.000444991 -0.00118355 15.729613 -0.00118355 35.130656 C -0.00118355 54.536908 15.727984 70.266076 35.134236 70.266076 C 54.535279 70.266076 70.264447 54.536908 70.264447 35.130656 C 70.264447 15.729613 54.535279 0.000444991 35.134236 0.000444991 Z M 35.134236 0.000444991 " stroke="#323232" stroke-width="6" stroke-opacity="1" stroke-miterlimit="4"/></g></g><g fill="#323232" fill-opacity="1"><g transform="translate(11.374021, 52.992231)"><g><path d="M 17.796875 11.40625 L 16.203125 11.40625 L 0 -41.625 L 1.59375 -41.625 Z M 17.796875 11.40625 "/></g></g></g><g fill="#fffcf8" fill-opacity="1"><g transform="translate(45.89682, 47.542734)"><g><path d="M 17.796875 11.40625 L 16.203125 11.40625 L 0 -41.625 L 1.59375 -41.625 Z M 17.796875 11.40625 "/></g></g></g><g fill="#ffa840" fill-opacity="1"><g transform="translate(44.89098, 60.404345)"><g><path d="M 2.015625 1.296875 L 1.84375 1.296875 L 0 -4.71875 L 0.1875 -4.71875 Z M 2.015625 1.296875 "/></g></g></g></svg>